<svg width="47" height="47" viewBox="0 0 47 47" fill="none" xmlns="http://www.w3.org/2000/svg">
<path d="M23.5 1C11.0733 1 1 11.0733 1 23.5C1 35.9267 11.0733 46 23.5 46C35.9267 46 46 35.9267 46 23.5C46 11.0733 35.9267 1 23.5 1Z" stroke="#8783E7" stroke-width="1.5" stroke-linecap="round" stroke-linejoin="round"/>
<path d="M14.4985 44.128V28L23.4985 12.25L32.4985 28V44.128" stroke="#8783E7" stroke-width="1.5" stroke-linecap="round" stroke-linejoin="round"/>
<path d="M14.4985 28.001C14.4985 28.001 17.0343 30.251 18.9985 30.251C20.9628 30.251 23.4985 28.001 23.4985 28.001C23.4985 28.001 26.0343 30.251 27.9985 30.251C29.9628 30.251 32.4985 28.001 32.4985 28.001" stroke="#8783E7" stroke-width="1.5" stroke-linecap="round" stroke-linejoin="round"/>
</svg>
