<svg width="563" height="136" viewBox="0 0 563 136" fill="none" xmlns="http://www.w3.org/2000/svg">
<path d="M43.8867 26.9893V46.7109C43.112 47.6452 41.9157 48.6592 40.2979 49.7529C38.68 50.8239 36.5951 51.7467 34.043 52.5215C31.4909 53.2962 28.4033 53.6836 24.7803 53.6836C21.5674 53.6836 18.6393 53.1595 15.9961 52.1113C13.3529 51.0404 11.0742 49.4795 9.16016 47.4287C7.26888 45.3779 5.81055 42.8714 4.78516 39.9092C3.75977 36.9242 3.24707 33.5176 3.24707 29.6895V26.5791C3.24707 22.751 3.73698 19.3444 4.7168 16.3594C5.7194 13.3743 7.14355 10.8564 8.98926 8.80566C10.835 6.75488 13.0339 5.19401 15.5859 4.12305C18.138 3.05208 20.9749 2.5166 24.0967 2.5166C28.4261 2.5166 31.9808 3.22298 34.7607 4.63574C37.5407 6.02572 39.6598 7.96257 41.1182 10.4463C42.5993 12.9072 43.5107 15.7327 43.8525 18.9229H33.9062C33.6556 17.2367 33.1771 15.7669 32.4707 14.5137C31.7643 13.2604 30.7503 12.2806 29.4287 11.5742C28.1299 10.8678 26.4437 10.5146 24.3701 10.5146C22.6611 10.5146 21.1344 10.8678 19.79 11.5742C18.4684 12.2578 17.3519 13.2718 16.4404 14.6162C15.529 15.9606 14.834 17.624 14.3555 19.6064C13.877 21.5889 13.6377 23.8903 13.6377 26.5107V29.6895C13.6377 32.2871 13.8883 34.5885 14.3896 36.5938C14.891 38.5762 15.6315 40.251 16.6113 41.6182C17.6139 42.9626 18.8444 43.9766 20.3027 44.6602C21.7611 45.3438 23.4587 45.6855 25.3955 45.6855C27.0133 45.6855 28.3577 45.5488 29.4287 45.2754C30.5225 45.002 31.3997 44.6715 32.0605 44.2842C32.7441 43.874 33.2682 43.4867 33.6328 43.1221V34.3037H24.2676V26.9893H43.8867ZM68.5645 53.6836C65.6934 53.6836 63.1185 53.2279 60.8398 52.3164C58.5612 51.3822 56.6243 50.0947 55.0293 48.4541C53.457 46.8135 52.2493 44.9108 51.4062 42.7461C50.5632 40.5586 50.1416 38.2344 50.1416 35.7734V34.4062C50.1416 31.6035 50.5404 29.04 51.3379 26.7158C52.1354 24.3916 53.2747 22.375 54.7559 20.666C56.2598 18.957 58.0827 17.6468 60.2246 16.7354C62.3665 15.8011 64.7819 15.334 67.4707 15.334C70.0911 15.334 72.4154 15.7669 74.4434 16.6328C76.4714 17.4987 78.1689 18.7292 79.5361 20.3242C80.9261 21.9193 81.9743 23.8333 82.6807 26.0664C83.387 28.2767 83.7402 30.7376 83.7402 33.4492V37.5508H54.3457V30.9883H74.0674V30.2363C74.0674 28.8691 73.8167 27.6501 73.3154 26.5791C72.8369 25.4854 72.1077 24.6195 71.1279 23.9814C70.1481 23.3434 68.8949 23.0244 67.3682 23.0244C66.0693 23.0244 64.9528 23.3092 64.0186 23.8789C63.0843 24.4486 62.321 25.2461 61.7285 26.2715C61.1589 27.2969 60.7259 28.5046 60.4297 29.8945C60.1562 31.2617 60.0195 32.7656 60.0195 34.4062V35.7734C60.0195 37.2546 60.2246 38.6217 60.6348 39.875C61.0677 41.1283 61.6715 42.2106 62.4463 43.1221C63.2438 44.0335 64.2008 44.7399 65.3174 45.2412C66.4567 45.7425 67.7441 45.9932 69.1797 45.9932C70.957 45.9932 72.609 45.6514 74.1357 44.9678C75.6852 44.2614 77.0182 43.2018 78.1348 41.7891L82.9199 46.9844C82.1452 48.1009 81.0856 49.1719 79.7412 50.1973C78.4196 51.2227 76.8245 52.0658 74.9561 52.7266C73.0876 53.3646 70.957 53.6836 68.5645 53.6836ZM107.461 16.0176V22.9902H85.9277V16.0176H107.461ZM91.2598 6.8916H101.104V41.8574C101.104 42.9284 101.24 43.7487 101.514 44.3184C101.81 44.888 102.243 45.2868 102.812 45.5146C103.382 45.7197 104.1 45.8223 104.966 45.8223C105.581 45.8223 106.128 45.7995 106.606 45.7539C107.108 45.6855 107.529 45.6172 107.871 45.5488L107.905 52.7949C107.062 53.0684 106.151 53.2848 105.171 53.4443C104.191 53.6038 103.109 53.6836 101.924 53.6836C99.7591 53.6836 97.8678 53.3304 96.25 52.624C94.6549 51.8949 93.4245 50.7327 92.5586 49.1377C91.6927 47.5426 91.2598 45.4463 91.2598 42.8486V6.8916ZM151.519 3.23438V53H141.299V3.23438H151.519ZM166.831 3.23438V11.2666H126.226V3.23438H166.831ZM181.665 0.5V53H171.821V0.5H181.665ZM180.264 33.21H177.563C177.586 30.6351 177.928 28.2653 178.589 26.1006C179.25 23.9131 180.195 22.0218 181.426 20.4268C182.656 18.8089 184.126 17.5557 185.835 16.667C187.567 15.7783 189.481 15.334 191.577 15.334C193.4 15.334 195.052 15.596 196.533 16.1201C198.037 16.6214 199.325 17.4417 200.396 18.5811C201.489 19.6976 202.332 21.1673 202.925 22.9902C203.517 24.8132 203.813 27.0234 203.813 29.6211V53H193.901V29.5527C193.901 27.9121 193.662 26.6247 193.184 25.6904C192.728 24.7334 192.056 24.0612 191.167 23.6738C190.301 23.2637 189.23 23.0586 187.954 23.0586C186.541 23.0586 185.334 23.3206 184.331 23.8447C183.351 24.3688 182.565 25.098 181.973 26.0322C181.38 26.9437 180.947 28.0146 180.674 29.2451C180.4 30.4756 180.264 31.7972 180.264 33.21ZM228.32 53.6836C225.449 53.6836 222.874 53.2279 220.596 52.3164C218.317 51.3822 216.38 50.0947 214.785 48.4541C213.213 46.8135 212.005 44.9108 211.162 42.7461C210.319 40.5586 209.897 38.2344 209.897 35.7734V34.4062C209.897 31.6035 210.296 29.04 211.094 26.7158C211.891 24.3916 213.031 22.375 214.512 20.666C216.016 18.957 217.839 17.6468 219.98 16.7354C222.122 15.8011 224.538 15.334 227.227 15.334C229.847 15.334 232.171 15.7669 234.199 16.6328C236.227 17.4987 237.925 18.7292 239.292 20.3242C240.682 21.9193 241.73 23.8333 242.437 26.0664C243.143 28.2767 243.496 30.7376 243.496 33.4492V37.5508H214.102V30.9883H233.823V30.2363C233.823 28.8691 233.573 27.6501 233.071 26.5791C232.593 25.4854 231.864 24.6195 230.884 23.9814C229.904 23.3434 228.651 23.0244 227.124 23.0244C225.825 23.0244 224.709 23.3092 223.774 23.8789C222.84 24.4486 222.077 25.2461 221.484 26.2715C220.915 27.2969 220.482 28.5046 220.186 29.8945C219.912 31.2617 219.775 32.7656 219.775 34.4062V35.7734C219.775 37.2546 219.98 38.6217 220.391 39.875C220.824 41.1283 221.427 42.2106 222.202 43.1221C223 44.0335 223.957 44.7399 225.073 45.2412C226.213 45.7425 227.5 45.9932 228.936 45.9932C230.713 45.9932 232.365 45.6514 233.892 44.9678C235.441 44.2614 236.774 43.2018 237.891 41.7891L242.676 46.9844C241.901 48.1009 240.841 49.1719 239.497 50.1973C238.175 51.2227 236.58 52.0658 234.712 52.7266C232.843 53.3646 230.713 53.6836 228.32 53.6836ZM11.2793 85.2344L21.6699 107.93L32.0605 85.2344H43.2373L26.8652 116.885V135H16.4746V116.885L0.0683594 85.2344H11.2793ZM43.3398 116.885V116.167C43.3398 113.455 43.7272 110.96 44.502 108.682C45.2767 106.38 46.4046 104.386 47.8857 102.7C49.3669 101.014 51.1898 99.7038 53.3545 98.7695C55.5192 97.8125 58.0029 97.334 60.8057 97.334C63.6084 97.334 66.1035 97.8125 68.291 98.7695C70.4785 99.7038 72.3128 101.014 73.7939 102.7C75.2979 104.386 76.4372 106.38 77.2119 108.682C77.9867 110.96 78.374 113.455 78.374 116.167V116.885C78.374 119.574 77.9867 122.069 77.2119 124.37C76.4372 126.649 75.2979 128.643 73.7939 130.352C72.3128 132.038 70.4899 133.348 68.3252 134.282C66.1605 135.216 63.6768 135.684 60.874 135.684C58.0713 135.684 55.5762 135.216 53.3887 134.282C51.224 133.348 49.3896 132.038 47.8857 130.352C46.4046 128.643 45.2767 126.649 44.502 124.37C43.7272 122.069 43.3398 119.574 43.3398 116.885ZM53.1836 116.167V116.885C53.1836 118.434 53.3203 119.881 53.5938 121.226C53.8672 122.57 54.3001 123.755 54.8926 124.78C55.5078 125.783 56.3053 126.569 57.2852 127.139C58.265 127.708 59.4613 127.993 60.874 127.993C62.2412 127.993 63.4147 127.708 64.3945 127.139C65.3743 126.569 66.1605 125.783 66.7529 124.78C67.3454 123.755 67.7783 122.57 68.0518 121.226C68.348 119.881 68.4961 118.434 68.4961 116.885V116.167C68.4961 114.663 68.348 113.25 68.0518 111.929C67.7783 110.584 67.334 109.399 66.7188 108.374C66.1263 107.326 65.3402 106.506 64.3604 105.913C63.3805 105.321 62.1956 105.024 60.8057 105.024C59.4157 105.024 58.2308 105.321 57.251 105.913C56.2939 106.506 55.5078 107.326 54.8926 108.374C54.3001 109.399 53.8672 110.584 53.5938 111.929C53.3203 113.25 53.1836 114.663 53.1836 116.167ZM106.299 126.147V98.0176H116.143V135H106.88L106.299 126.147ZM107.393 118.56L110.298 118.491C110.298 120.952 110.013 123.242 109.443 125.361C108.874 127.458 108.019 129.281 106.88 130.83C105.741 132.357 104.305 133.553 102.573 134.419C100.841 135.262 98.8021 135.684 96.4551 135.684C94.6549 135.684 92.9915 135.433 91.4648 134.932C89.9609 134.408 88.6621 133.599 87.5684 132.505C86.4974 131.388 85.6543 129.964 85.0391 128.232C84.4466 126.478 84.1504 124.37 84.1504 121.909V98.0176H93.9941V121.978C93.9941 123.071 94.1195 123.994 94.3701 124.746C94.6436 125.498 95.0195 126.113 95.498 126.592C95.9766 127.07 96.5348 127.412 97.1729 127.617C97.8337 127.822 98.5628 127.925 99.3604 127.925C101.388 127.925 102.983 127.515 104.146 126.694C105.33 125.874 106.162 124.757 106.641 123.345C107.142 121.909 107.393 120.314 107.393 118.56ZM156.987 135H146.152L146.221 127.002H156.987C159.676 127.002 161.943 126.398 163.789 125.19C165.635 123.96 167.025 122.171 167.959 119.824C168.916 117.477 169.395 114.64 169.395 111.313V108.887C169.395 106.335 169.121 104.09 168.574 102.153C168.05 100.216 167.264 98.5872 166.216 97.2656C165.168 95.944 163.88 94.9528 162.354 94.292C160.827 93.6084 159.072 93.2666 157.09 93.2666H145.947V85.2344H157.09C160.417 85.2344 163.459 85.804 166.216 86.9434C168.996 88.0599 171.4 89.6663 173.428 91.7627C175.456 93.859 177.017 96.3656 178.11 99.2822C179.227 102.176 179.785 105.4 179.785 108.955V111.313C179.785 114.845 179.227 118.07 178.11 120.986C177.017 123.903 175.456 126.41 173.428 128.506C171.423 130.579 169.019 132.186 166.216 133.325C163.436 134.442 160.36 135 156.987 135ZM151.963 85.2344V135H141.709V85.2344H151.963ZM203.643 135.684C200.771 135.684 198.197 135.228 195.918 134.316C193.639 133.382 191.702 132.095 190.107 130.454C188.535 128.813 187.327 126.911 186.484 124.746C185.641 122.559 185.22 120.234 185.22 117.773V116.406C185.22 113.604 185.618 111.04 186.416 108.716C187.214 106.392 188.353 104.375 189.834 102.666C191.338 100.957 193.161 99.6468 195.303 98.7354C197.445 97.8011 199.86 97.334 202.549 97.334C205.169 97.334 207.493 97.7669 209.521 98.6328C211.549 99.4987 213.247 100.729 214.614 102.324C216.004 103.919 217.052 105.833 217.759 108.066C218.465 110.277 218.818 112.738 218.818 115.449V119.551H189.424V112.988H209.146V112.236C209.146 110.869 208.895 109.65 208.394 108.579C207.915 107.485 207.186 106.619 206.206 105.981C205.226 105.343 203.973 105.024 202.446 105.024C201.147 105.024 200.031 105.309 199.097 105.879C198.162 106.449 197.399 107.246 196.807 108.271C196.237 109.297 195.804 110.505 195.508 111.895C195.234 113.262 195.098 114.766 195.098 116.406V117.773C195.098 119.255 195.303 120.622 195.713 121.875C196.146 123.128 196.75 124.211 197.524 125.122C198.322 126.034 199.279 126.74 200.396 127.241C201.535 127.743 202.822 127.993 204.258 127.993C206.035 127.993 207.687 127.651 209.214 126.968C210.763 126.261 212.096 125.202 213.213 123.789L217.998 128.984C217.223 130.101 216.164 131.172 214.819 132.197C213.498 133.223 211.903 134.066 210.034 134.727C208.166 135.365 206.035 135.684 203.643 135.684ZM244.419 124.78C244.419 124.074 244.214 123.436 243.804 122.866C243.394 122.297 242.63 121.772 241.514 121.294C240.42 120.793 238.836 120.337 236.763 119.927C234.894 119.517 233.151 119.004 231.533 118.389C229.938 117.751 228.548 116.987 227.363 116.099C226.201 115.21 225.29 114.162 224.629 112.954C223.968 111.724 223.638 110.322 223.638 108.75C223.638 107.201 223.968 105.742 224.629 104.375C225.312 103.008 226.281 101.8 227.534 100.752C228.81 99.681 230.36 98.8493 232.183 98.2568C234.028 97.6416 236.102 97.334 238.403 97.334C241.616 97.334 244.373 97.8467 246.675 98.8721C248.999 99.8975 250.776 101.31 252.007 103.11C253.26 104.888 253.887 106.916 253.887 109.194H244.043C244.043 108.237 243.838 107.383 243.428 106.631C243.04 105.856 242.425 105.252 241.582 104.819C240.762 104.364 239.691 104.136 238.369 104.136C237.275 104.136 236.33 104.329 235.532 104.717C234.735 105.081 234.119 105.583 233.687 106.221C233.276 106.836 233.071 107.52 233.071 108.271C233.071 108.841 233.185 109.354 233.413 109.81C233.664 110.243 234.062 110.641 234.609 111.006C235.156 111.37 235.863 111.712 236.729 112.031C237.617 112.327 238.711 112.601 240.01 112.852C242.676 113.398 245.057 114.116 247.153 115.005C249.25 115.871 250.913 117.056 252.144 118.56C253.374 120.041 253.989 121.989 253.989 124.404C253.989 126.045 253.625 127.549 252.896 128.916C252.166 130.283 251.118 131.479 249.751 132.505C248.384 133.507 246.743 134.294 244.829 134.863C242.938 135.41 240.807 135.684 238.438 135.684C234.997 135.684 232.08 135.068 229.688 133.838C227.318 132.607 225.518 131.047 224.287 129.155C223.079 127.241 222.476 125.282 222.476 123.276H231.807C231.852 124.621 232.194 125.703 232.832 126.523C233.493 127.344 234.325 127.936 235.327 128.301C236.353 128.665 237.458 128.848 238.643 128.848C239.919 128.848 240.978 128.677 241.821 128.335C242.664 127.97 243.302 127.492 243.735 126.899C244.191 126.284 244.419 125.578 244.419 124.78ZM277.402 135.684C274.531 135.684 271.956 135.228 269.678 134.316C267.399 133.382 265.462 132.095 263.867 130.454C262.295 128.813 261.087 126.911 260.244 124.746C259.401 122.559 258.979 120.234 258.979 117.773V116.406C258.979 113.604 259.378 111.04 260.176 108.716C260.973 106.392 262.113 104.375 263.594 102.666C265.098 100.957 266.921 99.6468 269.062 98.7354C271.204 97.8011 273.62 97.334 276.309 97.334C278.929 97.334 281.253 97.7669 283.281 98.6328C285.309 99.4987 287.007 100.729 288.374 102.324C289.764 103.919 290.812 105.833 291.519 108.066C292.225 110.277 292.578 112.738 292.578 115.449V119.551H263.184V112.988H282.905V112.236C282.905 110.869 282.655 109.65 282.153 108.579C281.675 107.485 280.946 106.619 279.966 105.981C278.986 105.343 277.733 105.024 276.206 105.024C274.907 105.024 273.791 105.309 272.856 105.879C271.922 106.449 271.159 107.246 270.566 108.271C269.997 109.297 269.564 110.505 269.268 111.895C268.994 113.262 268.857 114.766 268.857 116.406V117.773C268.857 119.255 269.062 120.622 269.473 121.875C269.906 123.128 270.509 124.211 271.284 125.122C272.082 126.034 273.039 126.74 274.155 127.241C275.295 127.743 276.582 127.993 278.018 127.993C279.795 127.993 281.447 127.651 282.974 126.968C284.523 126.261 285.856 125.202 286.973 123.789L291.758 128.984C290.983 130.101 289.924 131.172 288.579 132.197C287.257 133.223 285.662 134.066 283.794 134.727C281.925 135.365 279.795 135.684 277.402 135.684ZM308.027 106.084V135H298.184V98.0176H307.446L308.027 106.084ZM319.17 97.7783L318.999 106.904C318.521 106.836 317.939 106.779 317.256 106.733C316.595 106.665 315.991 106.631 315.444 106.631C314.054 106.631 312.847 106.813 311.821 107.178C310.819 107.52 309.976 108.032 309.292 108.716C308.631 109.399 308.13 110.231 307.788 111.211C307.469 112.191 307.287 113.307 307.241 114.561L305.259 113.945C305.259 111.553 305.498 109.354 305.977 107.349C306.455 105.321 307.15 103.555 308.062 102.051C308.996 100.547 310.135 99.3848 311.479 98.5645C312.824 97.7441 314.362 97.334 316.094 97.334C316.641 97.334 317.199 97.3796 317.769 97.4707C318.338 97.5391 318.805 97.6416 319.17 97.7783ZM337.012 127.822L345.215 98.0176H355.503L343.027 135H336.807L337.012 127.822ZM331.372 98.0176L339.609 127.856L339.78 135H333.525L321.05 98.0176H331.372ZM376.455 135.684C373.584 135.684 371.009 135.228 368.73 134.316C366.452 133.382 364.515 132.095 362.92 130.454C361.348 128.813 360.14 126.911 359.297 124.746C358.454 122.559 358.032 120.234 358.032 117.773V116.406C358.032 113.604 358.431 111.04 359.229 108.716C360.026 106.392 361.165 104.375 362.646 102.666C364.15 100.957 365.973 99.6468 368.115 98.7354C370.257 97.8011 372.673 97.334 375.361 97.334C377.982 97.334 380.306 97.7669 382.334 98.6328C384.362 99.4987 386.06 100.729 387.427 102.324C388.817 103.919 389.865 105.833 390.571 108.066C391.278 110.277 391.631 112.738 391.631 115.449V119.551H362.236V112.988H381.958V112.236C381.958 110.869 381.707 109.65 381.206 108.579C380.728 107.485 379.998 106.619 379.019 105.981C378.039 105.343 376.785 105.024 375.259 105.024C373.96 105.024 372.843 105.309 371.909 105.879C370.975 106.449 370.212 107.246 369.619 108.271C369.049 109.297 368.617 110.505 368.32 111.895C368.047 113.262 367.91 114.766 367.91 116.406V117.773C367.91 119.255 368.115 120.622 368.525 121.875C368.958 123.128 369.562 124.211 370.337 125.122C371.134 126.034 372.091 126.74 373.208 127.241C374.347 127.743 375.635 127.993 377.07 127.993C378.848 127.993 380.5 127.651 382.026 126.968C383.576 126.261 384.909 125.202 386.025 123.789L390.811 128.984C390.036 130.101 388.976 131.172 387.632 132.197C386.31 133.223 384.715 134.066 382.847 134.727C380.978 135.365 378.848 135.684 376.455 135.684Z" fill="black"/>
<path d="M267.148 3.23438H285.708C289.513 3.23438 292.783 3.80404 295.518 4.94336C298.275 6.08268 300.394 7.76888 301.875 10.002C303.356 12.235 304.097 14.9808 304.097 18.2393C304.097 20.9053 303.641 23.1953 302.729 25.1094C301.841 27.0007 300.576 28.5843 298.936 29.8604C297.318 31.1136 295.415 32.1162 293.228 32.8682L289.98 34.5771H273.848L273.779 26.5791H285.776C287.576 26.5791 289.069 26.2601 290.254 25.6221C291.439 24.984 292.327 24.0954 292.92 22.9561C293.535 21.8167 293.843 20.4951 293.843 18.9912C293.843 17.3962 293.547 16.0176 292.954 14.8555C292.362 13.6934 291.462 12.8047 290.254 12.1895C289.046 11.5742 287.531 11.2666 285.708 11.2666H277.402V53H267.148V3.23438ZM294.971 53L283.623 30.8174L294.458 30.749L305.942 52.5215V53H294.971ZM321.768 16.0176V53H311.89V16.0176H321.768ZM311.274 6.37891C311.274 4.94336 311.776 3.75846 312.778 2.82422C313.781 1.88997 315.125 1.42285 316.812 1.42285C318.475 1.42285 319.808 1.88997 320.811 2.82422C321.836 3.75846 322.349 4.94336 322.349 6.37891C322.349 7.81445 321.836 8.99935 320.811 9.93359C319.808 10.8678 318.475 11.335 316.812 11.335C315.125 11.335 313.781 10.8678 312.778 9.93359C311.776 8.99935 311.274 7.81445 311.274 6.37891ZM353.315 16.0176H362.236V51.7695C362.236 55.1419 361.484 58.0016 359.98 60.3486C358.499 62.7184 356.426 64.5072 353.76 65.7148C351.094 66.9453 347.995 67.5605 344.463 67.5605C342.913 67.5605 341.273 67.3555 339.541 66.9453C337.832 66.5352 336.191 65.8971 334.619 65.0312C333.07 64.1654 331.771 63.0716 330.723 61.75L335.063 55.9395C336.203 57.2611 337.524 58.2865 339.028 59.0156C340.532 59.7676 342.196 60.1436 344.019 60.1436C345.796 60.1436 347.3 59.8132 348.53 59.1523C349.761 58.5143 350.706 57.5687 351.367 56.3154C352.028 55.085 352.358 53.5924 352.358 51.8379V24.5625L353.315 16.0176ZM328.433 34.9531V34.2354C328.433 31.4098 328.774 28.8464 329.458 26.5449C330.164 24.2207 331.156 22.2269 332.432 20.5635C333.73 18.9001 335.303 17.6126 337.148 16.7012C338.994 15.7897 341.079 15.334 343.403 15.334C345.864 15.334 347.926 15.7897 349.59 16.7012C351.253 17.6126 352.62 18.9115 353.691 20.5977C354.762 22.2611 355.594 24.2321 356.187 26.5107C356.802 28.7666 357.28 31.2389 357.622 33.9277V35.5C357.28 38.0749 356.768 40.4674 356.084 42.6777C355.4 44.888 354.5 46.8249 353.384 48.4883C352.267 50.1289 350.877 51.4049 349.214 52.3164C347.573 53.2279 345.614 53.6836 343.335 53.6836C341.056 53.6836 338.994 53.2165 337.148 52.2822C335.326 51.348 333.765 50.0378 332.466 48.3516C331.167 46.6654 330.164 44.6829 329.458 42.4043C328.774 40.1257 328.433 37.6419 328.433 34.9531ZM338.276 34.2354V34.9531C338.276 36.4798 338.424 37.904 338.721 39.2256C339.017 40.5472 339.473 41.7207 340.088 42.7461C340.726 43.7487 341.512 44.5348 342.446 45.1045C343.403 45.6514 344.531 45.9248 345.83 45.9248C347.63 45.9248 349.1 45.5488 350.239 44.7969C351.379 44.0221 352.233 42.9626 352.803 41.6182C353.372 40.2738 353.703 38.7243 353.794 36.9697V32.4922C353.748 31.0566 353.555 29.7692 353.213 28.6299C352.871 27.4678 352.393 26.4766 351.777 25.6562C351.162 24.8359 350.365 24.1979 349.385 23.7422C348.405 23.2865 347.243 23.0586 345.898 23.0586C344.6 23.0586 343.472 23.3548 342.515 23.9473C341.58 24.5169 340.794 25.3031 340.156 26.3057C339.541 27.3083 339.074 28.4932 338.755 29.8604C338.436 31.2048 338.276 32.6631 338.276 34.2354ZM379.497 0.5V53H369.653V0.5H379.497ZM378.096 33.21H375.396C375.418 30.6351 375.76 28.2653 376.421 26.1006C377.082 23.9131 378.027 22.0218 379.258 20.4268C380.488 18.8089 381.958 17.5557 383.667 16.667C385.399 15.7783 387.313 15.334 389.409 15.334C391.232 15.334 392.884 15.596 394.365 16.1201C395.869 16.6214 397.157 17.4417 398.228 18.5811C399.321 19.6976 400.164 21.1673 400.757 22.9902C401.349 24.8132 401.646 27.0234 401.646 29.6211V53H391.733V29.5527C391.733 27.9121 391.494 26.6247 391.016 25.6904C390.56 24.7334 389.888 24.0612 388.999 23.6738C388.133 23.2637 387.062 23.0586 385.786 23.0586C384.373 23.0586 383.166 23.3206 382.163 23.8447C381.183 24.3688 380.397 25.098 379.805 26.0322C379.212 26.9437 378.779 28.0146 378.506 29.2451C378.232 30.4756 378.096 31.7972 378.096 33.21ZM427.246 16.0176V22.9902H405.713V16.0176H427.246ZM411.045 6.8916H420.889V41.8574C420.889 42.9284 421.025 43.7487 421.299 44.3184C421.595 44.888 422.028 45.2868 422.598 45.5146C423.167 45.7197 423.885 45.8223 424.751 45.8223C425.366 45.8223 425.913 45.7995 426.392 45.7539C426.893 45.6855 427.314 45.6172 427.656 45.5488L427.69 52.7949C426.847 53.0684 425.936 53.2848 424.956 53.4443C423.976 53.6038 422.894 53.6836 421.709 53.6836C419.544 53.6836 417.653 53.3304 416.035 52.624C414.44 51.8949 413.21 50.7327 412.344 49.1377C411.478 47.5426 411.045 45.4463 411.045 42.8486V6.8916ZM471.03 37.7217V3.23438H481.25V37.7217C481.25 41.0485 480.521 43.9082 479.062 46.3008C477.604 48.6706 475.61 50.4935 473.081 51.7695C470.575 53.0456 467.749 53.6836 464.604 53.6836C461.346 53.6836 458.464 53.1367 455.957 52.043C453.451 50.9492 451.479 49.2744 450.044 47.0186C448.608 44.7399 447.891 41.8574 447.891 38.3711H458.179C458.179 40.194 458.429 41.641 458.931 42.7119C459.455 43.7829 460.195 44.5462 461.152 45.002C462.109 45.4577 463.26 45.6855 464.604 45.6855C465.903 45.6855 467.031 45.3779 467.988 44.7627C468.945 44.1475 469.686 43.2474 470.21 42.0625C470.757 40.8776 471.03 39.4307 471.03 37.7217ZM487.812 34.8848V34.167C487.812 31.4554 488.2 28.9603 488.975 26.6816C489.749 24.3802 490.877 22.3864 492.358 20.7002C493.84 19.014 495.662 17.7038 497.827 16.7695C499.992 15.8125 502.476 15.334 505.278 15.334C508.081 15.334 510.576 15.8125 512.764 16.7695C514.951 17.7038 516.785 19.014 518.267 20.7002C519.771 22.3864 520.91 24.3802 521.685 26.6816C522.459 28.9603 522.847 31.4554 522.847 34.167V34.8848C522.847 37.5736 522.459 40.0687 521.685 42.3701C520.91 44.6488 519.771 46.6426 518.267 48.3516C516.785 50.0378 514.963 51.348 512.798 52.2822C510.633 53.2165 508.149 53.6836 505.347 53.6836C502.544 53.6836 500.049 53.2165 497.861 52.2822C495.697 51.348 493.862 50.0378 492.358 48.3516C490.877 46.6426 489.749 44.6488 488.975 42.3701C488.2 40.0687 487.812 37.5736 487.812 34.8848ZM497.656 34.167V34.8848C497.656 36.4342 497.793 37.8812 498.066 39.2256C498.34 40.57 498.773 41.7549 499.365 42.7803C499.98 43.7829 500.778 44.569 501.758 45.1387C502.738 45.7083 503.934 45.9932 505.347 45.9932C506.714 45.9932 507.887 45.7083 508.867 45.1387C509.847 44.569 510.633 43.7829 511.226 42.7803C511.818 41.7549 512.251 40.57 512.524 39.2256C512.821 37.8812 512.969 36.4342 512.969 34.8848V34.167C512.969 32.6631 512.821 31.2503 512.524 29.9287C512.251 28.5843 511.807 27.3994 511.191 26.374C510.599 25.3258 509.813 24.5055 508.833 23.9131C507.853 23.3206 506.668 23.0244 505.278 23.0244C503.888 23.0244 502.703 23.3206 501.724 23.9131C500.767 24.5055 499.98 25.3258 499.365 26.374C498.773 27.3994 498.34 28.5843 498.066 29.9287C497.793 31.2503 497.656 32.6631 497.656 34.167ZM528.896 0.5H538.74V44.5234L537.749 53H528.896V0.5ZM562.153 34.1328V34.8506C562.153 37.6077 561.857 40.137 561.265 42.4385C560.695 44.7399 559.806 46.7337 558.599 48.4199C557.391 50.0833 555.887 51.3822 554.087 52.3164C552.31 53.2279 550.213 53.6836 547.798 53.6836C545.542 53.6836 543.582 53.2279 541.919 52.3164C540.278 51.4049 538.9 50.1175 537.783 48.4541C536.667 46.7907 535.767 44.8424 535.083 42.6094C534.399 40.3763 533.887 37.9382 533.545 35.2949V33.7227C533.887 31.0794 534.399 28.6413 535.083 26.4082C535.767 24.1751 536.667 22.2269 537.783 20.5635C538.9 18.9001 540.278 17.6126 541.919 16.7012C543.56 15.7897 545.496 15.334 547.729 15.334C550.168 15.334 552.287 15.8011 554.087 16.7354C555.91 17.6468 557.414 18.9456 558.599 20.6318C559.806 22.2952 560.695 24.2777 561.265 26.5791C561.857 28.8577 562.153 31.3757 562.153 34.1328ZM552.31 34.8506V34.1328C552.31 32.6289 552.196 31.2161 551.968 29.8945C551.763 28.5501 551.398 27.3766 550.874 26.374C550.35 25.3486 549.632 24.5397 548.721 23.9473C547.832 23.3548 546.681 23.0586 545.269 23.0586C543.924 23.0586 542.785 23.2865 541.851 23.7422C540.916 24.1979 540.142 24.8359 539.526 25.6562C538.934 26.4766 538.49 27.4564 538.193 28.5957C537.897 29.7122 537.715 30.9427 537.646 32.2871V36.7646C537.715 38.5648 538.011 40.1598 538.535 41.5498C539.082 42.917 539.902 43.9993 540.996 44.7969C542.113 45.5716 543.56 45.959 545.337 45.959C546.727 45.959 547.878 45.6855 548.789 45.1387C549.701 44.5918 550.407 43.8171 550.908 42.8145C551.432 41.8118 551.797 40.6383 552.002 39.2939C552.207 37.9268 552.31 36.4456 552.31 34.8506Z" fill="#4540DB"/>
</svg>
