<svg width="43" height="26" viewBox="0 0 43 26" fill="none" xmlns="http://www.w3.org/2000/svg">
<path d="M42.3105 0.613281C41.6921 3.25 41.0573 6.01693 40.4062 8.91406C39.7878 11.8112 39.2181 14.6595 38.6973 17.459C38.1764 20.2259 37.737 22.765 37.3789 25.0762H23.707L23.0234 24.002C23.6094 21.6257 24.3581 19.1029 25.2695 16.4336C26.2135 13.7318 27.2227 11.0299 28.2969 8.32812C29.4036 5.59375 30.5104 3.02214 31.6172 0.613281H42.3105ZM19.5078 0.613281C18.8893 3.25 18.2546 6.01693 17.6035 8.91406C16.985 11.8112 16.4154 14.6595 15.8945 17.459C15.3737 20.2259 14.9342 22.765 14.5762 25.0762H0.904297L0.220703 24.002C0.806641 21.6257 1.55534 19.1029 2.4668 16.4336C3.41081 13.7318 4.41992 11.0299 5.49414 8.32812C6.60091 5.59375 7.70768 3.02214 8.81445 0.613281H19.5078Z" fill="#0667EE"/>
</svg>
