<svg width="431" height="107" viewBox="0 0 431 107" fill="none" xmlns="http://www.w3.org/2000/svg">
<path d="M31.4697 1.45312V37H26.7334L8.83789 9.58301V37H4.12598V1.45312H8.83789L26.8066 28.9434V1.45312H31.4697ZM50.0977 37.4883C48.2585 37.4883 46.5902 37.179 45.0928 36.5605C43.6117 35.9258 42.334 35.0387 41.2598 33.8994C40.2018 32.7601 39.388 31.4092 38.8184 29.8467C38.2487 28.2842 37.9639 26.5752 37.9639 24.7197V23.6943C37.9639 21.5459 38.2812 19.6335 38.916 17.957C39.5508 16.2643 40.4134 14.832 41.5039 13.6602C42.5944 12.4883 43.8314 11.6012 45.2148 10.999C46.5983 10.3968 48.0306 10.0957 49.5117 10.0957C51.3997 10.0957 53.0273 10.4212 54.3945 11.0723C55.778 11.7233 56.9092 12.6348 57.7881 13.8066C58.667 14.9622 59.318 16.3294 59.7412 17.9082C60.1644 19.4707 60.376 21.1797 60.376 23.0352V25.0615H40.6494V21.375H55.8594V21.0332C55.7943 19.8613 55.5501 18.722 55.127 17.6152C54.7201 16.5085 54.069 15.597 53.1738 14.8809C52.2786 14.1647 51.0579 13.8066 49.5117 13.8066C48.4863 13.8066 47.5423 14.0264 46.6797 14.4658C45.8171 14.889 45.0765 15.5238 44.458 16.3701C43.8395 17.2165 43.3594 18.25 43.0176 19.4707C42.6758 20.6914 42.5049 22.0993 42.5049 23.6943V24.7197C42.5049 25.973 42.6758 27.153 43.0176 28.2598C43.3757 29.3503 43.8883 30.3105 44.5557 31.1406C45.2393 31.9707 46.0612 32.6217 47.0215 33.0938C47.998 33.5658 49.1048 33.8018 50.3418 33.8018C51.9368 33.8018 53.2878 33.4762 54.3945 32.8252C55.5013 32.1742 56.4697 31.3034 57.2998 30.2129L60.0342 32.3857C59.4645 33.2484 58.7402 34.0703 57.8613 34.8516C56.9824 35.6328 55.9001 36.2676 54.6143 36.7559C53.3447 37.2441 51.8392 37.4883 50.0977 37.4883ZM73.3398 32.9229L80.5664 10.584H85.1807L75.6836 37H72.6562L73.3398 32.9229ZM67.3096 10.584L74.7559 33.0449L75.2686 37H72.2412L62.6709 10.584H67.3096ZM100.146 37.4883C98.3073 37.4883 96.639 37.179 95.1416 36.5605C93.6605 35.9258 92.3828 35.0387 91.3086 33.8994C90.2507 32.7601 89.4368 31.4092 88.8672 29.8467C88.2975 28.2842 88.0127 26.5752 88.0127 24.7197V23.6943C88.0127 21.5459 88.3301 19.6335 88.9648 17.957C89.5996 16.2643 90.4622 14.832 91.5527 13.6602C92.6432 12.4883 93.8802 11.6012 95.2637 10.999C96.6471 10.3968 98.0794 10.0957 99.5605 10.0957C101.449 10.0957 103.076 10.4212 104.443 11.0723C105.827 11.7233 106.958 12.6348 107.837 13.8066C108.716 14.9622 109.367 16.3294 109.79 17.9082C110.213 19.4707 110.425 21.1797 110.425 23.0352V25.0615H90.6982V21.375H105.908V21.0332C105.843 19.8613 105.599 18.722 105.176 17.6152C104.769 16.5085 104.118 15.597 103.223 14.8809C102.327 14.1647 101.107 13.8066 99.5605 13.8066C98.5352 13.8066 97.5911 14.0264 96.7285 14.4658C95.8659 14.889 95.1253 15.5238 94.5068 16.3701C93.8883 17.2165 93.4082 18.25 93.0664 19.4707C92.7246 20.6914 92.5537 22.0993 92.5537 23.6943V24.7197C92.5537 25.973 92.7246 27.153 93.0664 28.2598C93.4245 29.3503 93.9372 30.3105 94.6045 31.1406C95.2881 31.9707 96.11 32.6217 97.0703 33.0938C98.0469 33.5658 99.1536 33.8018 100.391 33.8018C101.986 33.8018 103.337 33.4762 104.443 32.8252C105.55 32.1742 106.519 31.3034 107.349 30.2129L110.083 32.3857C109.513 33.2484 108.789 34.0703 107.91 34.8516C107.031 35.6328 105.949 36.2676 104.663 36.7559C103.394 37.2441 101.888 37.4883 100.146 37.4883ZM120.215 14.7344V37H115.698V10.584H120.093L120.215 14.7344ZM128.467 10.4375L128.442 14.6367C128.068 14.5553 127.71 14.5065 127.368 14.4902C127.043 14.4577 126.668 14.4414 126.245 14.4414C125.203 14.4414 124.284 14.6042 123.486 14.9297C122.689 15.2552 122.013 15.7109 121.46 16.2969C120.907 16.8828 120.467 17.5827 120.142 18.3965C119.832 19.194 119.629 20.0729 119.531 21.0332L118.262 21.7656C118.262 20.1706 118.416 18.6732 118.726 17.2734C119.051 15.8737 119.548 14.6367 120.215 13.5625C120.882 12.472 121.729 11.6257 122.754 11.0234C123.796 10.4049 125.033 10.0957 126.465 10.0957C126.79 10.0957 127.165 10.1364 127.588 10.2178C128.011 10.2829 128.304 10.3561 128.467 10.4375ZM155.078 26.2578L162.134 1.45312H165.552L163.574 11.0967L155.981 37H152.588L155.078 26.2578ZM147.778 1.45312L153.394 25.7695L155.078 37H151.709L143.091 1.45312H147.778ZM174.683 25.7451L180.176 1.45312H184.888L176.294 37H172.925L174.683 25.7451ZM166.064 1.45312L172.925 26.2578L175.415 37H172.021L164.697 11.0967L162.695 1.45312H166.064ZM204.175 32.4834V18.8848C204.175 17.8431 203.963 16.9398 203.54 16.1748C203.133 15.3936 202.515 14.7913 201.685 14.3682C200.854 13.945 199.829 13.7334 198.608 13.7334C197.469 13.7334 196.468 13.9287 195.605 14.3193C194.759 14.71 194.092 15.2227 193.604 15.8574C193.132 16.4922 192.896 17.1758 192.896 17.9082H188.379C188.379 16.9642 188.623 16.0283 189.111 15.1006C189.6 14.1729 190.299 13.3346 191.211 12.5859C192.139 11.821 193.245 11.2188 194.531 10.7793C195.833 10.3236 197.282 10.0957 198.877 10.0957C200.798 10.0957 202.49 10.4212 203.955 11.0723C205.436 11.7233 206.592 12.708 207.422 14.0264C208.268 15.3285 208.691 16.9642 208.691 18.9336V31.2383C208.691 32.1172 208.765 33.0531 208.911 34.0459C209.074 35.0387 209.31 35.8932 209.619 36.6094V37H204.907C204.679 36.4792 204.5 35.7874 204.37 34.9248C204.24 34.0459 204.175 33.2321 204.175 32.4834ZM204.956 20.9844L205.005 24.1582H200.439C199.154 24.1582 198.006 24.264 196.997 24.4756C195.988 24.6709 195.142 24.972 194.458 25.3789C193.774 25.7858 193.254 26.2985 192.896 26.917C192.537 27.5192 192.358 28.2272 192.358 29.041C192.358 29.8711 192.546 30.6279 192.92 31.3115C193.294 31.9951 193.856 32.5404 194.604 32.9473C195.369 33.3379 196.305 33.5332 197.412 33.5332C198.796 33.5332 200.016 33.2402 201.074 32.6543C202.132 32.0684 202.97 31.3522 203.589 30.5059C204.224 29.6595 204.565 28.8376 204.614 28.04L206.543 30.2129C206.429 30.8965 206.12 31.6533 205.615 32.4834C205.111 33.3135 204.435 34.111 203.589 34.876C202.759 35.6247 201.766 36.2513 200.61 36.7559C199.471 37.2441 198.185 37.4883 196.753 37.4883C194.963 37.4883 193.392 37.1383 192.041 36.4385C190.706 35.7386 189.665 34.8027 188.916 33.6309C188.184 32.4427 187.817 31.1162 187.817 29.6514C187.817 28.2354 188.094 26.9902 188.647 25.916C189.201 24.8255 189.998 23.9222 191.04 23.2061C192.082 22.4736 193.335 21.9202 194.8 21.5459C196.265 21.1715 197.9 20.9844 199.707 20.9844H204.956ZM220.312 16.2236V37H215.796V10.584H220.068L220.312 16.2236ZM219.238 22.791L217.358 22.7178C217.375 20.9111 217.643 19.2428 218.164 17.7129C218.685 16.1667 219.417 14.8239 220.361 13.6846C221.305 12.5452 222.428 11.6663 223.73 11.0479C225.049 10.4131 226.506 10.0957 228.101 10.0957C229.403 10.0957 230.575 10.2747 231.616 10.6328C232.658 10.9746 233.545 11.528 234.277 12.293C235.026 13.0579 235.596 14.0508 235.986 15.2715C236.377 16.4759 236.572 17.9489 236.572 19.6904V37H232.031V19.6416C232.031 18.2581 231.828 17.1514 231.421 16.3213C231.014 15.4749 230.42 14.8646 229.639 14.4902C228.857 14.0996 227.897 13.9043 226.758 13.9043C225.635 13.9043 224.609 14.1403 223.682 14.6123C222.77 15.0843 221.981 15.7354 221.313 16.5654C220.662 17.3955 220.15 18.3477 219.775 19.4219C219.417 20.4798 219.238 21.6029 219.238 22.791ZM254.492 10.584V14.0508H240.21V10.584H254.492ZM245.044 4.16309H249.561V30.457C249.561 31.3522 249.699 32.0277 249.976 32.4834C250.252 32.9391 250.61 33.2402 251.05 33.3867C251.489 33.5332 251.961 33.6064 252.466 33.6064C252.84 33.6064 253.231 33.5739 253.638 33.5088C254.061 33.4274 254.378 33.3623 254.59 33.3135L254.614 37C254.256 37.1139 253.784 37.2197 253.198 37.3174C252.629 37.4313 251.937 37.4883 251.123 37.4883C250.016 37.4883 248.999 37.2686 248.071 36.8291C247.144 36.3896 246.403 35.6572 245.85 34.6318C245.312 33.5902 245.044 32.1904 245.044 30.4326V4.16309ZM283.252 10.584V14.0508H268.97V10.584H283.252ZM273.804 4.16309H278.32V30.457C278.32 31.3522 278.459 32.0277 278.735 32.4834C279.012 32.9391 279.37 33.2402 279.81 33.3867C280.249 33.5332 280.721 33.6064 281.226 33.6064C281.6 33.6064 281.991 33.5739 282.397 33.5088C282.821 33.4274 283.138 33.3623 283.35 33.3135L283.374 37C283.016 37.1139 282.544 37.2197 281.958 37.3174C281.388 37.4313 280.697 37.4883 279.883 37.4883C278.776 37.4883 277.759 37.2686 276.831 36.8291C275.903 36.3896 275.163 35.6572 274.609 34.6318C274.072 33.5902 273.804 32.1904 273.804 30.4326V4.16309ZM286.865 24.085V23.5234C286.865 21.6191 287.142 19.8532 287.695 18.2256C288.249 16.5817 289.046 15.1576 290.088 13.9531C291.13 12.7324 292.391 11.7884 293.872 11.1211C295.353 10.4375 297.013 10.0957 298.853 10.0957C300.708 10.0957 302.376 10.4375 303.857 11.1211C305.355 11.7884 306.624 12.7324 307.666 13.9531C308.724 15.1576 309.53 16.5817 310.083 18.2256C310.636 19.8532 310.913 21.6191 310.913 23.5234V24.085C310.913 25.9893 310.636 27.7552 310.083 29.3828C309.53 31.0104 308.724 32.4346 307.666 33.6553C306.624 34.8597 305.363 35.8037 303.882 36.4873C302.417 37.1546 300.757 37.4883 298.901 37.4883C297.046 37.4883 295.378 37.1546 293.896 36.4873C292.415 35.8037 291.146 34.8597 290.088 33.6553C289.046 32.4346 288.249 31.0104 287.695 29.3828C287.142 27.7552 286.865 25.9893 286.865 24.085ZM291.382 23.5234V24.085C291.382 25.4033 291.536 26.6484 291.846 27.8203C292.155 28.9759 292.619 30.0013 293.237 30.8965C293.872 31.7917 294.661 32.4997 295.605 33.0205C296.549 33.5251 297.648 33.7773 298.901 33.7773C300.138 33.7773 301.221 33.5251 302.148 33.0205C303.092 32.4997 303.874 31.7917 304.492 30.8965C305.111 30.0013 305.575 28.9759 305.884 27.8203C306.209 26.6484 306.372 25.4033 306.372 24.085V23.5234C306.372 22.2214 306.209 20.9925 305.884 19.8369C305.575 18.665 305.103 17.6315 304.468 16.7363C303.849 15.8249 303.068 15.1087 302.124 14.5879C301.196 14.0671 300.106 13.8066 298.853 13.8066C297.616 13.8066 296.525 14.0671 295.581 14.5879C294.653 15.1087 293.872 15.8249 293.237 16.7363C292.619 17.6315 292.155 18.665 291.846 19.8369C291.536 20.9925 291.382 22.2214 291.382 23.5234ZM331.152 1.45312H335.718L347.363 30.4326L358.984 1.45312H363.574L349.121 37H345.557L331.152 1.45312ZM329.663 1.45312H333.691L334.351 23.1328V37H329.663V1.45312ZM361.011 1.45312H365.039V37H360.352V23.1328L361.011 1.45312ZM377.539 10.584V37H372.998V10.584H377.539ZM372.656 3.57715C372.656 2.84473 372.876 2.22624 373.315 1.72168C373.771 1.21712 374.438 0.964844 375.317 0.964844C376.18 0.964844 376.839 1.21712 377.295 1.72168C377.767 2.22624 378.003 2.84473 378.003 3.57715C378.003 4.27702 377.767 4.87923 377.295 5.38379C376.839 5.87207 376.18 6.11621 375.317 6.11621C374.438 6.11621 373.771 5.87207 373.315 5.38379C372.876 4.87923 372.656 4.27702 372.656 3.57715ZM400.171 29.9932C400.171 29.3421 400.024 28.7399 399.731 28.1865C399.455 27.6169 398.877 27.1042 397.998 26.6484C397.135 26.1764 395.833 25.7695 394.092 25.4277C392.627 25.1185 391.3 24.7523 390.112 24.3291C388.94 23.9059 387.939 23.3932 387.109 22.791C386.296 22.1888 385.669 21.4808 385.229 20.667C384.79 19.8532 384.57 18.901 384.57 17.8105C384.57 16.7689 384.798 15.7842 385.254 14.8564C385.726 13.9287 386.385 13.1068 387.231 12.3906C388.094 11.6745 389.128 11.113 390.332 10.7061C391.536 10.2992 392.879 10.0957 394.36 10.0957C396.476 10.0957 398.283 10.4701 399.78 11.2188C401.278 11.9674 402.425 12.9684 403.223 14.2217C404.02 15.4587 404.419 16.834 404.419 18.3477H399.902C399.902 17.6152 399.683 16.9072 399.243 16.2236C398.82 15.5238 398.193 14.946 397.363 14.4902C396.549 14.0345 395.549 13.8066 394.36 13.8066C393.107 13.8066 392.09 14.002 391.309 14.3926C390.544 14.7669 389.982 15.2471 389.624 15.833C389.282 16.4189 389.111 17.0374 389.111 17.6885C389.111 18.1768 389.193 18.6162 389.355 19.0068C389.535 19.3812 389.844 19.7311 390.283 20.0566C390.723 20.3659 391.341 20.6589 392.139 20.9355C392.936 21.2122 393.953 21.4889 395.19 21.7656C397.355 22.2539 399.137 22.8398 400.537 23.5234C401.937 24.207 402.979 25.0452 403.662 26.0381C404.346 27.0309 404.688 28.2354 404.688 29.6514C404.688 30.807 404.443 31.8649 403.955 32.8252C403.483 33.7855 402.791 34.6156 401.88 35.3154C400.985 35.999 399.91 36.5361 398.657 36.9268C397.42 37.3011 396.029 37.4883 394.482 37.4883C392.155 37.4883 390.186 37.0732 388.574 36.2432C386.963 35.4131 385.742 34.3389 384.912 33.0205C384.082 31.7021 383.667 30.3105 383.667 28.8457H388.208C388.273 30.0827 388.631 31.0674 389.282 31.7998C389.933 32.516 390.731 33.0286 391.675 33.3379C392.619 33.6309 393.555 33.7773 394.482 33.7773C395.719 33.7773 396.753 33.6146 397.583 33.2891C398.429 32.9635 399.072 32.516 399.512 31.9463C399.951 31.3766 400.171 30.7256 400.171 29.9932ZM426.001 29.9932C426.001 29.3421 425.854 28.7399 425.562 28.1865C425.285 27.6169 424.707 27.1042 423.828 26.6484C422.965 26.1764 421.663 25.7695 419.922 25.4277C418.457 25.1185 417.131 24.7523 415.942 24.3291C414.771 23.9059 413.77 23.3932 412.939 22.791C412.126 22.1888 411.499 21.4808 411.06 20.667C410.62 19.8532 410.4 18.901 410.4 17.8105C410.4 16.7689 410.628 15.7842 411.084 14.8564C411.556 13.9287 412.215 13.1068 413.062 12.3906C413.924 11.6745 414.958 11.113 416.162 10.7061C417.367 10.2992 418.709 10.0957 420.19 10.0957C422.306 10.0957 424.113 10.4701 425.61 11.2188C427.108 11.9674 428.255 12.9684 429.053 14.2217C429.85 15.4587 430.249 16.834 430.249 18.3477H425.732C425.732 17.6152 425.513 16.9072 425.073 16.2236C424.65 15.5238 424.023 14.946 423.193 14.4902C422.38 14.0345 421.379 13.8066 420.19 13.8066C418.937 13.8066 417.92 14.002 417.139 14.3926C416.374 14.7669 415.812 15.2471 415.454 15.833C415.112 16.4189 414.941 17.0374 414.941 17.6885C414.941 18.1768 415.023 18.6162 415.186 19.0068C415.365 19.3812 415.674 19.7311 416.113 20.0566C416.553 20.3659 417.171 20.6589 417.969 20.9355C418.766 21.2122 419.784 21.4889 421.021 21.7656C423.185 22.2539 424.967 22.8398 426.367 23.5234C427.767 24.207 428.809 25.0452 429.492 26.0381C430.176 27.0309 430.518 28.2354 430.518 29.6514C430.518 30.807 430.273 31.8649 429.785 32.8252C429.313 33.7855 428.621 34.6156 427.71 35.3154C426.815 35.999 425.741 36.5361 424.487 36.9268C423.25 37.3011 421.859 37.4883 420.312 37.4883C417.985 37.4883 416.016 37.0732 414.404 36.2432C412.793 35.4131 411.572 34.3389 410.742 33.0205C409.912 31.7021 409.497 30.3105 409.497 28.8457H414.038C414.103 30.0827 414.461 31.0674 415.112 31.7998C415.763 32.516 416.561 33.0286 417.505 33.3379C418.449 33.6309 419.385 33.7773 420.312 33.7773C421.549 33.7773 422.583 33.6146 423.413 33.2891C424.259 32.9635 424.902 32.516 425.342 31.9463C425.781 31.3766 426.001 30.7256 426.001 29.9932ZM17.2852 63.6025L5.51758 96H0.708008L14.2578 60.4531H17.3584L17.2852 63.6025ZM27.1484 96L15.3564 63.6025L15.2832 60.4531H18.3838L31.9824 96H27.1484ZM26.5381 82.8408V86.6982H6.56738V82.8408H26.5381ZM40.5762 75.2236V96H36.0596V69.584H40.332L40.5762 75.2236ZM39.502 81.791L37.6221 81.7178C37.6383 79.9111 37.9069 78.2428 38.4277 76.7129C38.9486 75.1667 39.681 73.8239 40.625 72.6846C41.569 71.5452 42.6921 70.6663 43.9941 70.0479C45.3125 69.4131 46.7692 69.0957 48.3643 69.0957C49.6663 69.0957 50.8382 69.2747 51.8799 69.6328C52.9215 69.9746 53.8086 70.528 54.541 71.293C55.2897 72.0579 55.8594 73.0508 56.25 74.2715C56.6406 75.4759 56.8359 76.9489 56.8359 78.6904V96H52.2949V78.6416C52.2949 77.2581 52.0915 76.1514 51.6846 75.3213C51.2777 74.4749 50.6836 73.8646 49.9023 73.4902C49.1211 73.0996 48.1608 72.9043 47.0215 72.9043C45.8984 72.9043 44.873 73.1403 43.9453 73.6123C43.0339 74.0843 42.2445 74.7354 41.5771 75.5654C40.9261 76.3955 40.4134 77.3477 40.0391 78.4219C39.681 79.4798 39.502 80.6029 39.502 81.791ZM71.1182 93.2656L78.4668 69.584H83.3008L72.7051 100.077C72.4609 100.728 72.1354 101.428 71.7285 102.177C71.3379 102.942 70.8333 103.666 70.2148 104.35C69.5964 105.033 68.8477 105.587 67.9688 106.01C67.1061 106.449 66.0726 106.669 64.8682 106.669C64.5101 106.669 64.0544 106.62 63.501 106.522C62.9476 106.425 62.557 106.343 62.3291 106.278L62.3047 102.616C62.4349 102.632 62.6383 102.649 62.915 102.665C63.208 102.698 63.4115 102.714 63.5254 102.714C64.5508 102.714 65.4215 102.576 66.1377 102.299C66.8538 102.038 67.4561 101.591 67.9443 100.956C68.4489 100.338 68.8802 99.4831 69.2383 98.3926L71.1182 93.2656ZM65.7227 69.584L72.583 90.0918L73.7549 94.8525L70.5078 96.5127L60.791 69.584H65.7227ZM127.808 60.4531V96H123.071L105.176 68.583V96H100.464V60.4531H105.176L123.145 87.9434V60.4531H127.808ZM146.436 96.4883C144.596 96.4883 142.928 96.179 141.431 95.5605C139.95 94.9258 138.672 94.0387 137.598 92.8994C136.54 91.7601 135.726 90.4092 135.156 88.8467C134.587 87.2842 134.302 85.5752 134.302 83.7197V82.6943C134.302 80.5459 134.619 78.6335 135.254 76.957C135.889 75.2643 136.751 73.832 137.842 72.6602C138.932 71.4883 140.169 70.6012 141.553 69.999C142.936 69.3968 144.368 69.0957 145.85 69.0957C147.738 69.0957 149.365 69.4212 150.732 70.0723C152.116 70.7233 153.247 71.6348 154.126 72.8066C155.005 73.9622 155.656 75.3294 156.079 76.9082C156.502 78.4707 156.714 80.1797 156.714 82.0352V84.0615H136.987V80.375H152.197V80.0332C152.132 78.8613 151.888 77.722 151.465 76.6152C151.058 75.5085 150.407 74.597 149.512 73.8809C148.617 73.1647 147.396 72.8066 145.85 72.8066C144.824 72.8066 143.88 73.0264 143.018 73.4658C142.155 73.889 141.414 74.5238 140.796 75.3701C140.177 76.2165 139.697 77.25 139.355 78.4707C139.014 79.6914 138.843 81.0993 138.843 82.6943V83.7197C138.843 84.973 139.014 86.153 139.355 87.2598C139.714 88.3503 140.226 89.3105 140.894 90.1406C141.577 90.9707 142.399 91.6217 143.359 92.0938C144.336 92.5658 145.443 92.8018 146.68 92.8018C148.275 92.8018 149.626 92.4762 150.732 91.8252C151.839 91.1742 152.808 90.3034 153.638 89.2129L156.372 91.3857C155.802 92.2484 155.078 93.0703 154.199 93.8516C153.32 94.6328 152.238 95.2676 150.952 95.7559C149.683 96.2441 148.177 96.4883 146.436 96.4883ZM168.677 91.3125L175.464 69.584H178.442L177.856 73.9053L170.947 96H168.042L168.677 91.3125ZM164.111 69.584L169.897 91.5566L170.312 96H167.261L159.595 69.584H164.111ZM184.937 91.3857L190.454 69.584H194.946L187.28 96H184.253L184.937 91.3857ZM179.102 69.584L185.742 90.9463L186.499 96H183.618L176.514 73.8564L175.928 69.584H179.102Z" fill="black"/>
<path d="M227.588 85.624V60.4531H232.275V85.624C232.275 87.9678 231.795 89.9453 230.835 91.5566C229.875 93.168 228.548 94.3968 226.855 95.2432C225.179 96.0732 223.25 96.4883 221.069 96.4883C218.888 96.4883 216.951 96.1139 215.259 95.3652C213.566 94.6165 212.24 93.4772 211.279 91.9473C210.319 90.4173 209.839 88.4886 209.839 86.1611H214.551C214.551 87.6585 214.827 88.8874 215.381 89.8477C215.934 90.8079 216.699 91.516 217.676 91.9717C218.669 92.4274 219.8 92.6553 221.069 92.6553C222.306 92.6553 223.413 92.3949 224.39 91.874C225.382 91.3369 226.164 90.5475 226.733 89.5059C227.303 88.4479 227.588 87.154 227.588 85.624ZM238.379 83.085V82.5234C238.379 80.6191 238.656 78.8532 239.209 77.2256C239.762 75.5817 240.56 74.1576 241.602 72.9531C242.643 71.7324 243.905 70.7884 245.386 70.1211C246.867 69.4375 248.527 69.0957 250.366 69.0957C252.222 69.0957 253.89 69.4375 255.371 70.1211C256.868 70.7884 258.138 71.7324 259.18 72.9531C260.238 74.1576 261.043 75.5817 261.597 77.2256C262.15 78.8532 262.427 80.6191 262.427 82.5234V83.085C262.427 84.9893 262.15 86.7552 261.597 88.3828C261.043 90.0104 260.238 91.4346 259.18 92.6553C258.138 93.8597 256.877 94.8037 255.396 95.4873C253.931 96.1546 252.271 96.4883 250.415 96.4883C248.56 96.4883 246.891 96.1546 245.41 95.4873C243.929 94.8037 242.66 93.8597 241.602 92.6553C240.56 91.4346 239.762 90.0104 239.209 88.3828C238.656 86.7552 238.379 84.9893 238.379 83.085ZM242.896 82.5234V83.085C242.896 84.4033 243.05 85.6484 243.359 86.8203C243.669 87.9759 244.132 89.0013 244.751 89.8965C245.386 90.7917 246.175 91.4997 247.119 92.0205C248.063 92.5251 249.162 92.7773 250.415 92.7773C251.652 92.7773 252.734 92.5251 253.662 92.0205C254.606 91.4997 255.387 90.7917 256.006 89.8965C256.624 89.0013 257.088 87.9759 257.397 86.8203C257.723 85.6484 257.886 84.4033 257.886 83.085V82.5234C257.886 81.2214 257.723 79.9925 257.397 78.8369C257.088 77.665 256.616 76.6315 255.981 75.7363C255.363 74.8249 254.582 74.1087 253.638 73.5879C252.71 73.0671 251.619 72.8066 250.366 72.8066C249.129 72.8066 248.039 73.0671 247.095 73.5879C246.167 74.1087 245.386 74.8249 244.751 75.7363C244.132 76.6315 243.669 77.665 243.359 78.8369C243.05 79.9925 242.896 81.2214 242.896 82.5234ZM268.066 58.5H272.607V90.873L272.217 96H268.066V58.5ZM290.454 82.5723V83.085C290.454 85.0055 290.226 86.7878 289.771 88.4316C289.315 90.0592 288.647 91.4753 287.769 92.6797C286.89 93.8841 285.815 94.82 284.546 95.4873C283.276 96.1546 281.82 96.4883 280.176 96.4883C278.499 96.4883 277.026 96.2035 275.757 95.6338C274.504 95.0479 273.446 94.2096 272.583 93.1191C271.72 92.0286 271.029 90.7103 270.508 89.1641C270.003 87.6178 269.653 85.8763 269.458 83.9395V81.6934C269.653 79.7402 270.003 77.9906 270.508 76.4443C271.029 74.8981 271.72 73.5798 272.583 72.4893C273.446 71.3825 274.504 70.5443 275.757 69.9746C277.01 69.3887 278.467 69.0957 280.127 69.0957C281.787 69.0957 283.26 69.4212 284.546 70.0723C285.832 70.707 286.906 71.6185 287.769 72.8066C288.647 73.9948 289.315 75.4189 289.771 77.0791C290.226 78.723 290.454 80.554 290.454 82.5723ZM285.913 83.085V82.5723C285.913 81.2539 285.791 80.0169 285.547 78.8613C285.303 77.6895 284.912 76.6641 284.375 75.7852C283.838 74.89 283.13 74.1901 282.251 73.6855C281.372 73.1647 280.29 72.9043 279.004 72.9043C277.865 72.9043 276.872 73.0996 276.025 73.4902C275.195 73.8809 274.487 74.4098 273.901 75.0771C273.315 75.7282 272.835 76.4769 272.461 77.3232C272.103 78.1533 271.834 79.016 271.655 79.9111V85.7949C271.916 86.9342 272.339 88.0329 272.925 89.0908C273.527 90.1325 274.325 90.987 275.317 91.6543C276.326 92.3216 277.572 92.6553 279.053 92.6553C280.273 92.6553 281.315 92.4111 282.178 91.9229C283.057 91.4183 283.765 90.7266 284.302 89.8477C284.855 88.9688 285.262 87.9515 285.522 86.7959C285.783 85.6403 285.913 84.4033 285.913 83.085ZM305.981 85.9902H301.44C301.457 84.4277 301.595 83.1501 301.855 82.1572C302.132 81.1481 302.58 80.2285 303.198 79.3984C303.817 78.5684 304.639 77.6243 305.664 76.5664C306.413 75.8014 307.096 75.0853 307.715 74.418C308.35 73.7344 308.862 73.002 309.253 72.2207C309.644 71.4232 309.839 70.471 309.839 69.3643C309.839 68.2412 309.635 67.2728 309.229 66.459C308.838 65.6452 308.252 65.0186 307.471 64.5791C306.706 64.1396 305.754 63.9199 304.614 63.9199C303.67 63.9199 302.775 64.0908 301.929 64.4326C301.082 64.7744 300.399 65.3034 299.878 66.0195C299.357 66.7194 299.089 67.639 299.072 68.7783H294.556C294.588 66.9391 295.044 65.3604 295.923 64.042C296.818 62.7236 298.022 61.7145 299.536 61.0146C301.05 60.3148 302.743 59.9648 304.614 59.9648C306.681 59.9648 308.439 60.3392 309.888 61.0879C311.353 61.8366 312.467 62.9108 313.232 64.3105C313.997 65.694 314.38 67.3379 314.38 69.2422C314.38 70.707 314.079 72.0579 313.477 73.2949C312.891 74.5156 312.134 75.6631 311.206 76.7373C310.278 77.8115 309.294 78.8369 308.252 79.8135C307.357 80.6436 306.755 81.5794 306.445 82.6211C306.136 83.6628 305.981 84.7858 305.981 85.9902ZM301.245 93.7295C301.245 92.9971 301.473 92.3786 301.929 91.874C302.384 91.3695 303.044 91.1172 303.906 91.1172C304.785 91.1172 305.452 91.3695 305.908 91.874C306.364 92.3786 306.592 92.9971 306.592 93.7295C306.592 94.4294 306.364 95.0316 305.908 95.5361C305.452 96.0407 304.785 96.293 303.906 96.293C303.044 96.293 302.384 96.0407 301.929 95.5361C301.473 95.0316 301.245 94.4294 301.245 93.7295Z" fill="#4540DB"/>
</svg>
