<svg width="341" height="109" viewBox="0 0 341 109" fill="none" xmlns="http://www.w3.org/2000/svg">
<path d="M52.8984 20.25V22.2031C52.8984 24.8887 52.5485 27.2975 51.8486 29.4297C51.1488 31.5618 50.1478 33.3766 48.8457 34.874C47.5599 36.3714 46.0137 37.5189 44.207 38.3164C42.4004 39.0977 40.3984 39.4883 38.2012 39.4883C36.0202 39.4883 34.0264 39.0977 32.2197 38.3164C30.4294 37.5189 28.875 36.3714 27.5566 34.874C26.2383 33.3766 25.2129 31.5618 24.4805 29.4297C23.7643 27.2975 23.4062 24.8887 23.4062 22.2031V20.25C23.4062 17.5645 23.7643 15.1637 24.4805 13.0479C25.1966 10.9157 26.2057 9.10091 27.5078 7.60352C28.8262 6.08984 30.3805 4.94238 32.1709 4.16113C33.9775 3.36361 35.9714 2.96484 38.1523 2.96484C40.3496 2.96484 42.3516 3.36361 44.1582 4.16113C45.9648 4.94238 47.5192 6.08984 48.8213 7.60352C50.1234 9.10091 51.1243 10.9157 51.8242 13.0479C52.5404 15.1637 52.8984 17.5645 52.8984 20.25ZM46.7705 22.2031V20.2012C46.7705 18.2155 46.5752 16.4658 46.1846 14.9521C45.8102 13.4222 45.2487 12.1445 44.5 11.1191C43.7676 10.0775 42.8643 9.29622 41.79 8.77539C40.7158 8.23828 39.5033 7.96973 38.1523 7.96973C36.8014 7.96973 35.597 8.23828 34.5391 8.77539C33.4811 9.29622 32.5778 10.0775 31.8291 11.1191C31.0967 12.1445 30.5352 13.4222 30.1445 14.9521C29.7539 16.4658 29.5586 18.2155 29.5586 20.2012V22.2031C29.5586 24.1888 29.7539 25.9466 30.1445 27.4766C30.5352 29.0065 31.1048 30.3005 31.8535 31.3584C32.6185 32.4001 33.5299 33.1895 34.5879 33.7266C35.6458 34.2474 36.8503 34.5078 38.2012 34.5078C39.5684 34.5078 40.7809 34.2474 41.8389 33.7266C42.8968 33.1895 43.792 32.4001 44.5244 31.3584C45.2568 30.3005 45.8102 29.0065 46.1846 27.4766C46.5752 25.9466 46.7705 24.1888 46.7705 22.2031ZM64.2754 18.2236V39H58.3916V12.584H63.9336L64.2754 18.2236ZM63.2256 24.8154L61.3213 24.791C61.3376 22.9193 61.598 21.2021 62.1025 19.6396C62.6234 18.0771 63.3395 16.7344 64.251 15.6113C65.1787 14.4883 66.2855 13.6257 67.5713 13.0234C68.8571 12.4049 70.2894 12.0957 71.8682 12.0957C73.1377 12.0957 74.2852 12.2747 75.3105 12.6328C76.3522 12.9746 77.2393 13.5361 77.9717 14.3174C78.7204 15.0986 79.29 16.1159 79.6807 17.3691C80.0713 18.6061 80.2666 20.1279 80.2666 21.9346V39H74.3584V21.9102C74.3584 20.6406 74.1712 19.6396 73.7969 18.9072C73.4388 18.1585 72.9098 17.6296 72.21 17.3203C71.5264 16.9948 70.6719 16.832 69.6465 16.832C68.6374 16.832 67.734 17.0436 66.9365 17.4668C66.139 17.89 65.4635 18.4678 64.9102 19.2002C64.373 19.9326 63.958 20.779 63.665 21.7393C63.3721 22.6995 63.2256 23.7249 63.2256 24.8154ZM97.918 39.4883C95.9648 39.4883 94.1989 39.1709 92.6201 38.5361C91.0576 37.8851 89.723 36.9818 88.6162 35.8262C87.5257 34.6706 86.6875 33.3115 86.1016 31.749C85.5156 30.1865 85.2227 28.502 85.2227 26.6953V25.7188C85.2227 23.6517 85.5238 21.7799 86.126 20.1035C86.7282 18.4271 87.5664 16.9948 88.6406 15.8066C89.7148 14.6022 90.9844 13.6826 92.4492 13.0479C93.9141 12.4131 95.501 12.0957 97.21 12.0957C99.098 12.0957 100.75 12.4131 102.166 13.0479C103.582 13.6826 104.754 14.5778 105.682 15.7334C106.626 16.8727 107.326 18.2318 107.781 19.8105C108.253 21.3893 108.489 23.1309 108.489 25.0352V27.5498H88.0791V23.3262H102.679V22.8623C102.646 21.8044 102.435 20.8115 102.044 19.8838C101.67 18.9561 101.092 18.2074 100.311 17.6377C99.5293 17.068 98.4876 16.7832 97.1855 16.7832C96.209 16.7832 95.3382 16.9948 94.5732 17.418C93.8245 17.8249 93.1979 18.4189 92.6934 19.2002C92.1888 19.9814 91.7982 20.9255 91.5215 22.0322C91.2611 23.1227 91.1309 24.3516 91.1309 25.7188V26.6953C91.1309 27.8509 91.2855 28.9251 91.5947 29.918C91.9202 30.8945 92.3923 31.749 93.0107 32.4814C93.6292 33.2139 94.3779 33.7917 95.2568 34.2148C96.1357 34.6217 97.1367 34.8252 98.2598 34.8252C99.6758 34.8252 100.937 34.5404 102.044 33.9707C103.151 33.401 104.111 32.5954 104.925 31.5537L108.025 34.5566C107.456 35.3867 106.715 36.1842 105.804 36.9492C104.892 37.6979 103.777 38.3083 102.459 38.7803C101.157 39.2523 99.6432 39.4883 97.918 39.4883ZM139.617 25.7432H130.364V20.8848H139.617C141.229 20.8848 142.531 20.6243 143.523 20.1035C144.516 19.5827 145.241 18.8665 145.696 17.9551C146.168 17.0273 146.404 15.9694 146.404 14.7812C146.404 13.6582 146.168 12.6084 145.696 11.6318C145.241 10.639 144.516 9.84147 143.523 9.23926C142.531 8.63704 141.229 8.33594 139.617 8.33594H132.244V39H126.116V3.45312H139.617C142.368 3.45312 144.703 3.94141 146.624 4.91797C148.561 5.87826 150.034 7.21289 151.043 8.92188C152.052 10.6146 152.557 12.5514 152.557 14.7324C152.557 17.0273 152.052 18.9967 151.043 20.6406C150.034 22.2845 148.561 23.5459 146.624 24.4248C144.703 25.3037 142.368 25.7432 139.617 25.7432ZM163.763 1.5V39H157.854V1.5H163.763ZM185.101 33.7021V21.1045C185.101 20.1605 184.93 19.3467 184.588 18.6631C184.246 17.9795 183.725 17.4505 183.025 17.0762C182.342 16.7018 181.479 16.5146 180.438 16.5146C179.477 16.5146 178.647 16.6774 177.947 17.0029C177.247 17.3285 176.702 17.7679 176.312 18.3213C175.921 18.8747 175.726 19.5013 175.726 20.2012H169.866C169.866 19.1595 170.118 18.1504 170.623 17.1738C171.128 16.1973 171.86 15.3265 172.82 14.5615C173.781 13.7965 174.928 13.1943 176.263 12.7549C177.597 12.3154 179.095 12.0957 180.755 12.0957C182.741 12.0957 184.498 12.4294 186.028 13.0967C187.575 13.764 188.787 14.7731 189.666 16.124C190.561 17.4587 191.009 19.1351 191.009 21.1533V32.8965C191.009 34.1009 191.09 35.1833 191.253 36.1436C191.432 37.0876 191.684 37.9095 192.01 38.6094V39H185.979C185.703 38.3652 185.483 37.5596 185.32 36.583C185.174 35.5902 185.101 34.6299 185.101 33.7021ZM185.955 22.9355L186.004 26.5732H181.78C180.69 26.5732 179.729 26.679 178.899 26.8906C178.069 27.0859 177.378 27.3789 176.824 27.7695C176.271 28.1602 175.856 28.6322 175.579 29.1855C175.302 29.7389 175.164 30.3656 175.164 31.0654C175.164 31.7653 175.327 32.4082 175.652 32.9941C175.978 33.5638 176.45 34.0114 177.068 34.3369C177.703 34.6624 178.468 34.8252 179.363 34.8252C180.568 34.8252 181.618 34.5811 182.513 34.0928C183.424 33.5882 184.14 32.9779 184.661 32.2617C185.182 31.5293 185.459 30.8376 185.491 30.1865L187.396 32.7988C187.2 33.4661 186.867 34.1823 186.395 34.9473C185.923 35.7122 185.304 36.4447 184.539 37.1445C183.79 37.8281 182.887 38.3896 181.829 38.8291C180.787 39.2686 179.583 39.4883 178.216 39.4883C176.491 39.4883 174.952 39.1465 173.602 38.4629C172.251 37.763 171.193 36.8271 170.428 35.6553C169.663 34.4671 169.28 33.1243 169.28 31.627C169.28 30.2272 169.541 28.9902 170.062 27.916C170.599 26.8255 171.38 25.9141 172.405 25.1816C173.447 24.4492 174.716 23.8958 176.214 23.5215C177.711 23.1309 179.42 22.9355 181.341 22.9355H185.955ZM209.271 12.584V16.8809H194.378V12.584H209.271ZM198.675 6.11426H204.559V31.7002C204.559 32.514 204.673 33.1406 204.9 33.5801C205.145 34.0033 205.478 34.2881 205.901 34.4346C206.325 34.5811 206.821 34.6543 207.391 34.6543C207.798 34.6543 208.188 34.6299 208.562 34.5811C208.937 34.5322 209.238 34.4834 209.466 34.4346L209.49 38.9268C209.002 39.0732 208.432 39.2035 207.781 39.3174C207.146 39.4313 206.414 39.4883 205.584 39.4883C204.233 39.4883 203.037 39.2523 201.995 38.7803C200.953 38.292 200.14 37.5026 199.554 36.4121C198.968 35.3216 198.675 33.873 198.675 32.0664V6.11426ZM221.771 39H215.887V10.0449C215.887 8.07552 216.253 6.4235 216.985 5.08887C217.734 3.73796 218.8 2.7207 220.184 2.03711C221.567 1.33724 223.203 0.987305 225.091 0.987305C225.677 0.987305 226.255 1.02799 226.824 1.10938C227.394 1.17448 227.947 1.28027 228.484 1.42676L228.338 5.96777C228.012 5.88639 227.654 5.82943 227.264 5.79688C226.889 5.76432 226.482 5.74805 226.043 5.74805C225.148 5.74805 224.375 5.91895 223.724 6.26074C223.089 6.58626 222.601 7.06641 222.259 7.70117C221.933 8.33594 221.771 9.11719 221.771 10.0449V39ZM227.215 12.584V16.8809H211.834V12.584H227.215ZM230.364 26.085V25.5234C230.364 23.6191 230.641 21.8532 231.194 20.2256C231.748 18.5817 232.545 17.1576 233.587 15.9531C234.645 14.7324 235.931 13.7884 237.444 13.1211C238.974 12.4375 240.7 12.0957 242.62 12.0957C244.557 12.0957 246.282 12.4375 247.796 13.1211C249.326 13.7884 250.62 14.7324 251.678 15.9531C252.736 17.1576 253.541 18.5817 254.095 20.2256C254.648 21.8532 254.925 23.6191 254.925 25.5234V26.085C254.925 27.9893 254.648 29.7552 254.095 31.3828C253.541 33.0104 252.736 34.4346 251.678 35.6553C250.62 36.8597 249.334 37.8037 247.82 38.4873C246.307 39.1546 244.59 39.4883 242.669 39.4883C240.732 39.4883 238.999 39.1546 237.469 38.4873C235.955 37.8037 234.669 36.8597 233.611 35.6553C232.553 34.4346 231.748 33.0104 231.194 31.3828C230.641 29.7552 230.364 27.9893 230.364 26.085ZM236.248 25.5234V26.085C236.248 27.2731 236.37 28.3962 236.614 29.4541C236.858 30.512 237.241 31.4398 237.762 32.2373C238.283 33.0348 238.95 33.6615 239.764 34.1172C240.577 34.5729 241.546 34.8008 242.669 34.8008C243.759 34.8008 244.703 34.5729 245.501 34.1172C246.315 33.6615 246.982 33.0348 247.503 32.2373C248.024 31.4398 248.406 30.512 248.65 29.4541C248.911 28.3962 249.041 27.2731 249.041 26.085V25.5234C249.041 24.3516 248.911 23.2448 248.65 22.2031C248.406 21.1452 248.016 20.2093 247.479 19.3955C246.958 18.5817 246.29 17.9469 245.477 17.4912C244.679 17.0192 243.727 16.7832 242.62 16.7832C241.513 16.7832 240.553 17.0192 239.739 17.4912C238.942 17.9469 238.283 18.5817 237.762 19.3955C237.241 20.2093 236.858 21.1452 236.614 22.2031C236.37 23.2448 236.248 24.3516 236.248 25.5234ZM265.765 17.6133V39H259.881V12.584H265.496L265.765 17.6133ZM273.846 12.4131L273.797 17.8818C273.439 17.8167 273.048 17.7679 272.625 17.7354C272.218 17.7028 271.811 17.6865 271.404 17.6865C270.395 17.6865 269.508 17.833 268.743 18.126C267.978 18.4027 267.335 18.8096 266.814 19.3467C266.31 19.8675 265.919 20.5023 265.643 21.251C265.366 21.9997 265.203 22.8379 265.154 23.7656L263.812 23.8633C263.812 22.2031 263.974 20.665 264.3 19.249C264.625 17.833 265.114 16.5879 265.765 15.5137C266.432 14.4395 267.262 13.6012 268.255 12.999C269.264 12.3968 270.428 12.0957 271.746 12.0957C272.104 12.0957 272.487 12.1283 272.894 12.1934C273.317 12.2585 273.634 12.3317 273.846 12.4131ZM283.416 17.9551V39H277.532V12.584H283.074L283.416 17.9551ZM282.464 24.8154L280.462 24.791C280.462 22.9681 280.69 21.2835 281.146 19.7373C281.601 18.1911 282.269 16.8483 283.147 15.709C284.026 14.5534 285.117 13.6663 286.419 13.0479C287.737 12.4131 289.259 12.0957 290.984 12.0957C292.189 12.0957 293.287 12.2747 294.28 12.6328C295.289 12.9746 296.16 13.5199 296.893 14.2686C297.641 15.0173 298.211 15.9775 298.602 17.1494C299.008 18.3213 299.212 19.7373 299.212 21.3975V39H293.328V21.9102C293.328 20.6243 293.133 19.6152 292.742 18.8828C292.368 18.1504 291.823 17.6296 291.106 17.3203C290.407 16.9948 289.568 16.832 288.592 16.832C287.485 16.832 286.541 17.0436 285.76 17.4668C284.995 17.89 284.368 18.4678 283.88 19.2002C283.392 19.9326 283.034 20.779 282.806 21.7393C282.578 22.6995 282.464 23.7249 282.464 24.8154ZM298.846 23.2529L296.087 23.8633C296.087 22.2682 296.307 20.7627 296.746 19.3467C297.202 17.9144 297.861 16.6611 298.724 15.5869C299.603 14.4964 300.685 13.6419 301.971 13.0234C303.257 12.4049 304.729 12.0957 306.39 12.0957C307.741 12.0957 308.945 12.2829 310.003 12.6572C311.077 13.0153 311.989 13.585 312.737 14.3662C313.486 15.1475 314.056 16.1647 314.446 17.418C314.837 18.6549 315.032 20.1523 315.032 21.9102V39H309.124V21.8857C309.124 20.5511 308.929 19.5176 308.538 18.7852C308.164 18.0527 307.627 17.5482 306.927 17.2715C306.227 16.9785 305.389 16.832 304.412 16.832C303.501 16.832 302.695 17.0029 301.995 17.3447C301.312 17.6702 300.734 18.1341 300.262 18.7363C299.79 19.3223 299.432 19.9977 299.188 20.7627C298.96 21.5277 298.846 22.3577 298.846 23.2529ZM2.58105 62.4531H8.0498L18.3281 89.8701L28.582 62.4531H34.0508L20.4766 98H16.1309L2.58105 62.4531ZM0.0908203 62.4531H5.29102L6.19434 86.1836V98H0.0908203V62.4531ZM31.3408 62.4531H36.5654V98H30.4375V86.1836L31.3408 62.4531ZM58.1475 92.7021V80.1045C58.1475 79.1605 57.9766 78.3467 57.6348 77.6631C57.293 76.9795 56.7721 76.4505 56.0723 76.0762C55.3887 75.7018 54.526 75.5146 53.4844 75.5146C52.5241 75.5146 51.694 75.6774 50.9941 76.0029C50.2943 76.3285 49.749 76.7679 49.3584 77.3213C48.9678 77.8747 48.7725 78.5013 48.7725 79.2012H42.9131C42.9131 78.1595 43.1654 77.1504 43.6699 76.1738C44.1745 75.1973 44.9069 74.3265 45.8672 73.5615C46.8275 72.7965 47.9749 72.1943 49.3096 71.7549C50.6442 71.3154 52.1416 71.0957 53.8018 71.0957C55.7874 71.0957 57.5452 71.4294 59.0752 72.0967C60.6214 72.764 61.834 73.7731 62.7129 75.124C63.6081 76.4587 64.0557 78.1351 64.0557 80.1533V91.8965C64.0557 93.1009 64.137 94.1833 64.2998 95.1436C64.4788 96.0876 64.7311 96.9095 65.0566 97.6094V98H59.0264C58.7497 97.3652 58.5299 96.5596 58.3672 95.583C58.2207 94.5902 58.1475 93.6299 58.1475 92.7021ZM59.002 81.9355L59.0508 85.5732H54.8271C53.7367 85.5732 52.7764 85.679 51.9463 85.8906C51.1162 86.0859 50.4245 86.3789 49.8711 86.7695C49.3177 87.1602 48.9027 87.6322 48.626 88.1855C48.3493 88.7389 48.2109 89.3656 48.2109 90.0654C48.2109 90.7653 48.3737 91.4082 48.6992 91.9941C49.0247 92.5638 49.4967 93.0114 50.1152 93.3369C50.75 93.6624 51.515 93.8252 52.4102 93.8252C53.6146 93.8252 54.6644 93.5811 55.5596 93.0928C56.471 92.5882 57.1872 91.9779 57.708 91.2617C58.2288 90.5293 58.5055 89.8376 58.5381 89.1865L60.4424 91.7988C60.2471 92.4661 59.9134 93.1823 59.4414 93.9473C58.9694 94.7122 58.3509 95.4447 57.5859 96.1445C56.8372 96.8281 55.9339 97.3896 54.876 97.8291C53.8343 98.2686 52.6299 98.4883 51.2627 98.4883C49.5374 98.4883 47.9993 98.1465 46.6484 97.4629C45.2975 96.763 44.2396 95.8271 43.4746 94.6553C42.7096 93.4671 42.3271 92.1243 42.3271 90.627C42.3271 89.2272 42.5876 87.9902 43.1084 86.916C43.6455 85.8255 44.4268 84.9141 45.4521 84.1816C46.4938 83.4492 47.7633 82.8958 49.2607 82.5215C50.7581 82.1309 52.4671 81.9355 54.3877 81.9355H59.002ZM76.043 77.2236V98H70.1592V71.584H75.7012L76.043 77.2236ZM74.9932 83.8154L73.0889 83.791C73.1051 81.9193 73.3656 80.2021 73.8701 78.6396C74.391 77.0771 75.1071 75.7344 76.0186 74.6113C76.9463 73.4883 78.0531 72.6257 79.3389 72.0234C80.6247 71.4049 82.057 71.0957 83.6357 71.0957C84.9053 71.0957 86.0527 71.2747 87.0781 71.6328C88.1198 71.9746 89.0068 72.5361 89.7393 73.3174C90.488 74.0986 91.0576 75.1159 91.4482 76.3691C91.8389 77.6061 92.0342 79.1279 92.0342 80.9346V98H86.126V80.9102C86.126 79.6406 85.9388 78.6396 85.5645 77.9072C85.2064 77.1585 84.6774 76.6296 83.9775 76.3203C83.2939 75.9948 82.4395 75.832 81.4141 75.832C80.4049 75.832 79.5016 76.0436 78.7041 76.4668C77.9066 76.89 77.2311 77.4678 76.6777 78.2002C76.1406 78.9326 75.7256 79.779 75.4326 80.7393C75.1396 81.6995 74.9932 82.7249 74.9932 83.8154ZM105.706 95.1191L112.884 71.584H119.183L108.587 102.028C108.343 102.679 108.025 103.387 107.635 104.152C107.244 104.917 106.731 105.642 106.097 106.325C105.478 107.025 104.705 107.587 103.777 108.01C102.85 108.449 101.727 108.669 100.408 108.669C99.8874 108.669 99.3828 108.62 98.8945 108.522C98.4225 108.441 97.9749 108.352 97.5518 108.254L97.5273 103.762C97.6901 103.778 97.8854 103.794 98.1133 103.811C98.3574 103.827 98.5527 103.835 98.6992 103.835C99.6758 103.835 100.49 103.713 101.141 103.469C101.792 103.241 102.321 102.867 102.728 102.346C103.151 101.825 103.509 101.125 103.802 100.246L105.706 95.1191ZM101.653 71.584L107.928 91.3594L108.978 97.5605L104.9 98.6104L95.3057 71.584H101.653Z" fill="black"/>
<path d="M154.29 88.8447C154.29 88.1123 154.176 87.4613 153.948 86.8916C153.737 86.3219 153.354 85.8011 152.801 85.3291C152.247 84.8571 151.466 84.4014 150.457 83.9619C149.464 83.5062 148.195 83.0423 146.648 82.5703C144.956 82.0495 143.393 81.4717 141.961 80.8369C140.545 80.1859 139.308 79.4372 138.25 78.5908C137.192 77.7282 136.37 76.7435 135.784 75.6367C135.198 74.5137 134.905 73.2197 134.905 71.7549C134.905 70.3063 135.206 68.988 135.809 67.7998C136.427 66.6117 137.298 65.5863 138.421 64.7236C139.56 63.8447 140.903 63.1693 142.449 62.6973C143.995 62.209 145.704 61.9648 147.576 61.9648C150.213 61.9648 152.483 62.4531 154.388 63.4297C156.308 64.4062 157.781 65.7165 158.807 67.3604C159.848 69.0042 160.369 70.819 160.369 72.8047H154.29C154.29 71.6328 154.038 70.5993 153.533 69.7041C153.045 68.7926 152.296 68.0765 151.287 67.5557C150.294 67.0348 149.033 66.7744 147.503 66.7744C146.054 66.7744 144.85 66.9941 143.89 67.4336C142.929 67.873 142.213 68.4671 141.741 69.2158C141.269 69.9645 141.033 70.8109 141.033 71.7549C141.033 72.4222 141.188 73.0326 141.497 73.5859C141.806 74.123 142.278 74.6276 142.913 75.0996C143.548 75.5553 144.345 75.9867 145.306 76.3936C146.266 76.8005 147.397 77.1911 148.699 77.5654C150.669 78.1514 152.386 78.8024 153.851 79.5186C155.315 80.2184 156.536 81.016 157.513 81.9111C158.489 82.8063 159.222 83.8236 159.71 84.9629C160.198 86.0859 160.442 87.3636 160.442 88.7959C160.442 90.2933 160.141 91.6442 159.539 92.8486C158.937 94.0368 158.074 95.054 156.951 95.9004C155.844 96.7305 154.51 97.3734 152.947 97.8291C151.401 98.2686 149.676 98.4883 147.771 98.4883C146.062 98.4883 144.378 98.2604 142.718 97.8047C141.074 97.349 139.576 96.6572 138.226 95.7295C136.875 94.7855 135.8 93.6136 135.003 92.2139C134.205 90.7979 133.807 89.1458 133.807 87.2578H139.935C139.935 88.4134 140.13 89.3981 140.521 90.2119C140.927 91.0257 141.489 91.693 142.205 92.2139C142.921 92.7184 143.751 93.0928 144.695 93.3369C145.656 93.5811 146.681 93.7031 147.771 93.7031C149.204 93.7031 150.4 93.4997 151.36 93.0928C152.337 92.6859 153.069 92.1162 153.558 91.3838C154.046 90.6514 154.29 89.805 154.29 88.8447ZM164.153 85.085V84.5234C164.153 82.6191 164.43 80.8532 164.983 79.2256C165.537 77.5817 166.334 76.1576 167.376 74.9531C168.434 73.7324 169.72 72.7884 171.233 72.1211C172.763 71.4375 174.489 71.0957 176.409 71.0957C178.346 71.0957 180.071 71.4375 181.585 72.1211C183.115 72.7884 184.409 73.7324 185.467 74.9531C186.525 76.1576 187.33 77.5817 187.884 79.2256C188.437 80.8532 188.714 82.6191 188.714 84.5234V85.085C188.714 86.9893 188.437 88.7552 187.884 90.3828C187.33 92.0104 186.525 93.4346 185.467 94.6553C184.409 95.8597 183.123 96.8037 181.609 97.4873C180.096 98.1546 178.379 98.4883 176.458 98.4883C174.521 98.4883 172.788 98.1546 171.258 97.4873C169.744 96.8037 168.458 95.8597 167.4 94.6553C166.342 93.4346 165.537 92.0104 164.983 90.3828C164.43 88.7552 164.153 86.9893 164.153 85.085ZM170.037 84.5234V85.085C170.037 86.2731 170.159 87.3962 170.403 88.4541C170.647 89.512 171.03 90.4398 171.551 91.2373C172.072 92.0348 172.739 92.6615 173.553 93.1172C174.367 93.5729 175.335 93.8008 176.458 93.8008C177.549 93.8008 178.493 93.5729 179.29 93.1172C180.104 92.6615 180.771 92.0348 181.292 91.2373C181.813 90.4398 182.195 89.512 182.439 88.4541C182.7 87.3962 182.83 86.2731 182.83 85.085V84.5234C182.83 83.3516 182.7 82.2448 182.439 81.2031C182.195 80.1452 181.805 79.2093 181.268 78.3955C180.747 77.5817 180.079 76.9469 179.266 76.4912C178.468 76.0192 177.516 75.7832 176.409 75.7832C175.302 75.7832 174.342 76.0192 173.528 76.4912C172.731 76.9469 172.072 77.5817 171.551 78.3955C171.03 79.2093 170.647 80.1452 170.403 81.2031C170.159 82.2448 170.037 83.3516 170.037 84.5234ZM199.944 60.5V98H194.036V60.5H199.944ZM222.283 91.7744V71.584H228.191V98H222.625L222.283 91.7744ZM223.113 86.2812L225.091 86.2324C225.091 88.0065 224.896 89.6423 224.505 91.1396C224.114 92.6208 223.512 93.9147 222.698 95.0215C221.884 96.112 220.843 96.9665 219.573 97.585C218.304 98.1872 216.782 98.4883 215.008 98.4883C213.722 98.4883 212.542 98.3011 211.468 97.9268C210.394 97.5524 209.466 96.9746 208.685 96.1934C207.92 95.4121 207.326 94.3949 206.902 93.1416C206.479 91.8883 206.268 90.391 206.268 88.6494V71.584H212.151V88.6982C212.151 89.6585 212.265 90.4642 212.493 91.1152C212.721 91.75 213.03 92.2627 213.421 92.6533C213.812 93.0439 214.267 93.3206 214.788 93.4834C215.309 93.6462 215.862 93.7275 216.448 93.7275C218.125 93.7275 219.443 93.402 220.403 92.751C221.38 92.0837 222.072 91.1885 222.479 90.0654C222.902 88.9424 223.113 87.681 223.113 86.2812ZM246.331 71.584V75.8809H231.438V71.584H246.331ZM235.735 65.1143H241.619V90.7002C241.619 91.514 241.733 92.1406 241.961 92.5801C242.205 93.0033 242.539 93.2881 242.962 93.4346C243.385 93.5811 243.882 93.6543 244.451 93.6543C244.858 93.6543 245.249 93.6299 245.623 93.5811C245.997 93.5322 246.299 93.4834 246.526 93.4346L246.551 97.9268C246.062 98.0732 245.493 98.2035 244.842 98.3174C244.207 98.4313 243.475 98.4883 242.645 98.4883C241.294 98.4883 240.097 98.2523 239.056 97.7803C238.014 97.292 237.2 96.5026 236.614 95.4121C236.028 94.3216 235.735 92.873 235.735 91.0664V65.1143ZM257.171 71.584V98H251.263V71.584H257.171ZM250.872 64.6504C250.872 63.7552 251.165 63.0146 251.751 62.4287C252.353 61.8265 253.183 61.5254 254.241 61.5254C255.283 61.5254 256.105 61.8265 256.707 62.4287C257.309 63.0146 257.61 63.7552 257.61 64.6504C257.61 65.5293 257.309 66.2617 256.707 66.8477C256.105 67.4336 255.283 67.7266 254.241 67.7266C253.183 67.7266 252.353 67.4336 251.751 66.8477C251.165 66.2617 250.872 65.5293 250.872 64.6504ZM262.493 85.085V84.5234C262.493 82.6191 262.77 80.8532 263.323 79.2256C263.877 77.5817 264.674 76.1576 265.716 74.9531C266.774 73.7324 268.06 72.7884 269.573 72.1211C271.103 71.4375 272.828 71.0957 274.749 71.0957C276.686 71.0957 278.411 71.4375 279.925 72.1211C281.455 72.7884 282.749 73.7324 283.807 74.9531C284.865 76.1576 285.67 77.5817 286.224 79.2256C286.777 80.8532 287.054 82.6191 287.054 84.5234V85.085C287.054 86.9893 286.777 88.7552 286.224 90.3828C285.67 92.0104 284.865 93.4346 283.807 94.6553C282.749 95.8597 281.463 96.8037 279.949 97.4873C278.436 98.1546 276.718 98.4883 274.798 98.4883C272.861 98.4883 271.128 98.1546 269.598 97.4873C268.084 96.8037 266.798 95.8597 265.74 94.6553C264.682 93.4346 263.877 92.0104 263.323 90.3828C262.77 88.7552 262.493 86.9893 262.493 85.085ZM268.377 84.5234V85.085C268.377 86.2731 268.499 87.3962 268.743 88.4541C268.987 89.512 269.37 90.4398 269.891 91.2373C270.411 92.0348 271.079 92.6615 271.893 93.1172C272.706 93.5729 273.675 93.8008 274.798 93.8008C275.888 93.8008 276.832 93.5729 277.63 93.1172C278.444 92.6615 279.111 92.0348 279.632 91.2373C280.153 90.4398 280.535 89.512 280.779 88.4541C281.04 87.3962 281.17 86.2731 281.17 85.085V84.5234C281.17 83.3516 281.04 82.2448 280.779 81.2031C280.535 80.1452 280.145 79.2093 279.607 78.3955C279.087 77.5817 278.419 76.9469 277.605 76.4912C276.808 76.0192 275.856 75.7832 274.749 75.7832C273.642 75.7832 272.682 76.0192 271.868 76.4912C271.071 76.9469 270.411 77.5817 269.891 78.3955C269.37 79.2093 268.987 80.1452 268.743 81.2031C268.499 82.2448 268.377 83.3516 268.377 84.5234ZM297.82 77.2236V98H291.937V71.584H297.479L297.82 77.2236ZM296.771 83.8154L294.866 83.791C294.882 81.9193 295.143 80.2021 295.647 78.6396C296.168 77.0771 296.884 75.7344 297.796 74.6113C298.724 73.4883 299.83 72.6257 301.116 72.0234C302.402 71.4049 303.834 71.0957 305.413 71.0957C306.683 71.0957 307.83 71.2747 308.855 71.6328C309.897 71.9746 310.784 72.5361 311.517 73.3174C312.265 74.0986 312.835 75.1159 313.226 76.3691C313.616 77.6061 313.812 79.1279 313.812 80.9346V98H307.903V80.9102C307.903 79.6406 307.716 78.6396 307.342 77.9072C306.984 77.1585 306.455 76.6296 305.755 76.3203C305.071 75.9948 304.217 75.832 303.191 75.832C302.182 75.832 301.279 76.0436 300.481 76.4668C299.684 76.89 299.008 77.4678 298.455 78.2002C297.918 78.9326 297.503 79.779 297.21 80.7393C296.917 81.6995 296.771 82.7249 296.771 83.8154ZM334.637 90.8467C334.637 90.2607 334.49 89.7318 334.197 89.2598C333.904 88.7715 333.343 88.332 332.513 87.9414C331.699 87.5508 330.494 87.1927 328.899 86.8672C327.5 86.5579 326.214 86.1917 325.042 85.7686C323.886 85.3291 322.894 84.8001 322.063 84.1816C321.233 83.5632 320.59 82.8307 320.135 81.9844C319.679 81.138 319.451 80.1615 319.451 79.0547C319.451 77.9805 319.687 76.9632 320.159 76.0029C320.631 75.0426 321.307 74.1963 322.186 73.4639C323.064 72.7314 324.131 72.1536 325.384 71.7305C326.653 71.3073 328.069 71.0957 329.632 71.0957C331.845 71.0957 333.742 71.4701 335.32 72.2188C336.915 72.9512 338.136 73.9521 338.982 75.2217C339.829 76.4749 340.252 77.891 340.252 79.4697H334.368C334.368 78.7699 334.189 78.1188 333.831 77.5166C333.489 76.8981 332.968 76.4017 332.269 76.0273C331.569 75.6367 330.69 75.4414 329.632 75.4414C328.623 75.4414 327.785 75.6042 327.117 75.9297C326.466 76.2389 325.978 76.6458 325.652 77.1504C325.343 77.6549 325.188 78.2083 325.188 78.8105C325.188 79.25 325.27 79.6488 325.433 80.0068C325.612 80.3486 325.905 80.666 326.312 80.959C326.718 81.2357 327.272 81.4961 327.972 81.7402C328.688 81.9844 329.583 82.2204 330.657 82.4482C332.675 82.8714 334.409 83.4167 335.857 84.084C337.322 84.735 338.445 85.5814 339.227 86.623C340.008 87.6484 340.398 88.9505 340.398 90.5293C340.398 91.7012 340.146 92.7754 339.642 93.752C339.153 94.7122 338.437 95.5505 337.493 96.2666C336.549 96.9665 335.418 97.5117 334.1 97.9023C332.798 98.293 331.333 98.4883 329.705 98.4883C327.312 98.4883 325.286 98.0651 323.626 97.2188C321.966 96.3561 320.704 95.2575 319.842 93.9229C318.995 92.5719 318.572 91.1722 318.572 89.7236H324.261C324.326 90.8141 324.627 91.6849 325.164 92.3359C325.717 92.9707 326.401 93.4346 327.215 93.7275C328.045 94.0042 328.899 94.1426 329.778 94.1426C330.836 94.1426 331.723 94.0042 332.439 93.7275C333.156 93.4346 333.701 93.0439 334.075 92.5557C334.45 92.0511 334.637 91.4814 334.637 90.8467Z" fill="#4540DB"/>
</svg>
