<svg width="236" height="49" viewBox="0 0 236 49" fill="none" xmlns="http://www.w3.org/2000/svg">
<path d="M30.1094 19.25V21.2031C30.1094 23.8887 29.7594 26.2975 29.0596 28.4297C28.3597 30.5618 27.3587 32.3766 26.0566 33.874C24.7708 35.3714 23.2246 36.5189 21.418 37.3164C19.6113 38.0977 17.6094 38.4883 15.4121 38.4883C13.2311 38.4883 11.2373 38.0977 9.43066 37.3164C7.6403 36.5189 6.08594 35.3714 4.76758 33.874C3.44922 32.3766 2.42383 30.5618 1.69141 28.4297C0.97526 26.2975 0.617188 23.8887 0.617188 21.2031V19.25C0.617188 16.5645 0.97526 14.1637 1.69141 12.0479C2.40755 9.91569 3.41667 8.10091 4.71875 6.60352C6.03711 5.08984 7.59147 3.94238 9.38184 3.16113C11.1885 2.36361 13.1823 1.96484 15.3633 1.96484C17.5605 1.96484 19.5625 2.36361 21.3691 3.16113C23.1758 3.94238 24.7301 5.08984 26.0322 6.60352C27.3343 8.10091 28.3353 9.91569 29.0352 12.0479C29.7513 14.1637 30.1094 16.5645 30.1094 19.25ZM23.9814 21.2031V19.2012C23.9814 17.2155 23.7861 15.4658 23.3955 13.9521C23.0212 12.4222 22.4596 11.1445 21.7109 10.1191C20.9785 9.07747 20.0752 8.29622 19.001 7.77539C17.9268 7.23828 16.7142 6.96973 15.3633 6.96973C14.0124 6.96973 12.8079 7.23828 11.75 7.77539C10.6921 8.29622 9.78874 9.07747 9.04004 10.1191C8.30762 11.1445 7.74609 12.4222 7.35547 13.9521C6.96484 15.4658 6.76953 17.2155 6.76953 19.2012V21.2031C6.76953 23.1888 6.96484 24.9466 7.35547 26.4766C7.74609 28.0065 8.31576 29.3005 9.06445 30.3584C9.82943 31.4001 10.7409 32.1895 11.7988 32.7266C12.8568 33.2474 14.0612 33.5078 15.4121 33.5078C16.7793 33.5078 17.9919 33.2474 19.0498 32.7266C20.1077 32.1895 21.0029 31.4001 21.7354 30.3584C22.4678 29.3005 23.0212 28.0065 23.3955 26.4766C23.7861 24.9466 23.9814 23.1888 23.9814 21.2031ZM41.5596 16.6621V48.1562H35.6758V11.584H41.0957L41.5596 16.6621ZM58.7715 24.5479V25.0605C58.7715 26.9811 58.5436 28.7633 58.0879 30.4072C57.6484 32.0348 56.9893 33.459 56.1104 34.6797C55.2477 35.8841 54.1816 36.82 52.9121 37.4873C51.6426 38.1546 50.1777 38.4883 48.5176 38.4883C46.8737 38.4883 45.4333 38.1872 44.1963 37.585C42.9756 36.9665 41.9421 36.0957 41.0957 34.9727C40.2493 33.8496 39.5658 32.5312 39.0449 31.0176C38.5404 29.4876 38.1823 27.8112 37.9707 25.9883V24.0107C38.1823 22.0739 38.5404 20.3161 39.0449 18.7373C39.5658 17.1585 40.2493 15.7995 41.0957 14.6602C41.9421 13.5208 42.9756 12.6419 44.1963 12.0234C45.417 11.4049 46.8411 11.0957 48.4688 11.0957C50.1289 11.0957 51.6019 11.4212 52.8877 12.0723C54.1735 12.707 55.2559 13.6185 56.1348 14.8066C57.0137 15.9785 57.6729 17.3945 58.1123 19.0547C58.5518 20.6986 58.7715 22.5296 58.7715 24.5479ZM52.8877 25.0605V24.5479C52.8877 23.3271 52.7738 22.196 52.5459 21.1543C52.318 20.0964 51.96 19.1686 51.4717 18.3711C50.9834 17.5736 50.3568 16.9551 49.5918 16.5156C48.8431 16.0599 47.9398 15.832 46.8818 15.832C45.8402 15.832 44.945 16.0111 44.1963 16.3691C43.4476 16.7109 42.821 17.1911 42.3164 17.8096C41.8118 18.4281 41.4212 19.1523 41.1445 19.9824C40.8678 20.7962 40.6725 21.6833 40.5586 22.6436V27.3799C40.7539 28.5518 41.0876 29.626 41.5596 30.6025C42.0316 31.5791 42.6989 32.3604 43.5615 32.9463C44.4404 33.516 45.5635 33.8008 46.9307 33.8008C47.9886 33.8008 48.8919 33.5729 49.6406 33.1172C50.3893 32.6615 50.9997 32.0348 51.4717 31.2373C51.96 30.4235 52.318 29.4876 52.5459 28.4297C52.7738 27.3717 52.8877 26.2487 52.8877 25.0605ZM75.4219 38.4883C73.4688 38.4883 71.7028 38.1709 70.124 37.5361C68.5615 36.8851 67.2269 35.9818 66.1201 34.8262C65.0296 33.6706 64.1914 32.3115 63.6055 30.749C63.0195 29.1865 62.7266 27.502 62.7266 25.6953V24.7188C62.7266 22.6517 63.0277 20.7799 63.6299 19.1035C64.2321 17.4271 65.0703 15.9948 66.1445 14.8066C67.2188 13.6022 68.4883 12.6826 69.9531 12.0479C71.418 11.4131 73.0049 11.0957 74.7139 11.0957C76.6019 11.0957 78.2539 11.4131 79.6699 12.0479C81.0859 12.6826 82.2578 13.5778 83.1855 14.7334C84.1296 15.8727 84.8294 17.2318 85.2852 18.8105C85.7572 20.3893 85.9932 22.1309 85.9932 24.0352V26.5498H65.583V22.3262H80.1826V21.8623C80.1501 20.8044 79.9385 19.8115 79.5479 18.8838C79.1735 17.9561 78.5957 17.2074 77.8145 16.6377C77.0332 16.068 75.9915 15.7832 74.6895 15.7832C73.7129 15.7832 72.8421 15.9948 72.0771 16.418C71.3285 16.8249 70.7018 17.4189 70.1973 18.2002C69.6927 18.9814 69.3021 19.9255 69.0254 21.0322C68.765 22.1227 68.6348 23.3516 68.6348 24.7188V25.6953C68.6348 26.8509 68.7894 27.9251 69.0986 28.918C69.4242 29.8945 69.8962 30.749 70.5146 31.4814C71.1331 32.2139 71.8818 32.7917 72.7607 33.2148C73.6396 33.6217 74.6406 33.8252 75.7637 33.8252C77.1797 33.8252 78.4411 33.5404 79.5479 32.9707C80.6546 32.401 81.6149 31.5954 82.4287 30.5537L85.5293 33.5566C84.9596 34.3867 84.2191 35.1842 83.3076 35.9492C82.3962 36.6979 81.2812 37.3083 79.9629 37.7803C78.6608 38.2523 77.1471 38.4883 75.4219 38.4883ZM96.418 17.2236V38H90.5342V11.584H96.0762L96.418 17.2236ZM95.3682 23.8154L93.4639 23.791C93.4801 21.9193 93.7406 20.2021 94.2451 18.6396C94.766 17.0771 95.4821 15.7344 96.3936 14.6113C97.3213 13.4883 98.4281 12.6257 99.7139 12.0234C101 11.4049 102.432 11.0957 104.011 11.0957C105.28 11.0957 106.428 11.2747 107.453 11.6328C108.495 11.9746 109.382 12.5361 110.114 13.3174C110.863 14.0986 111.433 15.1159 111.823 16.3691C112.214 17.6061 112.409 19.1279 112.409 20.9346V38H106.501V20.9102C106.501 19.6406 106.314 18.6396 105.939 17.9072C105.581 17.1585 105.052 16.6296 104.353 16.3203C103.669 15.9948 102.814 15.832 101.789 15.832C100.78 15.832 99.8766 16.0436 99.0791 16.4668C98.2816 16.89 97.6061 17.4678 97.0527 18.2002C96.5156 18.9326 96.1006 19.779 95.8076 20.7393C95.5146 21.6995 95.3682 22.7249 95.3682 23.8154Z" fill="black"/>
<path d="M146.076 27.3311V2.45312H152.18V27.3311C152.18 29.6911 151.675 31.7012 150.666 33.3613C149.657 35.0215 148.282 36.291 146.54 37.1699C144.799 38.0488 142.821 38.4883 140.607 38.4883C138.345 38.4883 136.335 38.1058 134.577 37.3408C132.836 36.5758 131.468 35.404 130.476 33.8252C129.483 32.2464 128.986 30.2445 128.986 27.8193H135.139C135.139 29.2191 135.358 30.3503 135.798 31.2129C136.254 32.0592 136.888 32.6777 137.702 33.0684C138.532 33.4427 139.501 33.6299 140.607 33.6299C141.665 33.6299 142.601 33.3939 143.415 32.9219C144.245 32.4336 144.896 31.7256 145.368 30.7979C145.84 29.8538 146.076 28.6982 146.076 27.3311ZM157.526 25.085V24.5234C157.526 22.6191 157.803 20.8532 158.356 19.2256C158.91 17.5817 159.707 16.1576 160.749 14.9531C161.807 13.7324 163.093 12.7884 164.606 12.1211C166.136 11.4375 167.862 11.0957 169.782 11.0957C171.719 11.0957 173.444 11.4375 174.958 12.1211C176.488 12.7884 177.782 13.7324 178.84 14.9531C179.898 16.1576 180.703 17.5817 181.257 19.2256C181.81 20.8532 182.087 22.6191 182.087 24.5234V25.085C182.087 26.9893 181.81 28.7552 181.257 30.3828C180.703 32.0104 179.898 33.4346 178.84 34.6553C177.782 35.8597 176.496 36.8037 174.982 37.4873C173.469 38.1546 171.752 38.4883 169.831 38.4883C167.894 38.4883 166.161 38.1546 164.631 37.4873C163.117 36.8037 161.831 35.8597 160.773 34.6553C159.715 33.4346 158.91 32.0104 158.356 30.3828C157.803 28.7552 157.526 26.9893 157.526 25.085ZM163.41 24.5234V25.085C163.41 26.2731 163.532 27.3962 163.776 28.4541C164.021 29.512 164.403 30.4398 164.924 31.2373C165.445 32.0348 166.112 32.6615 166.926 33.1172C167.74 33.5729 168.708 33.8008 169.831 33.8008C170.922 33.8008 171.866 33.5729 172.663 33.1172C173.477 32.6615 174.144 32.0348 174.665 31.2373C175.186 30.4398 175.568 29.512 175.812 28.4541C176.073 27.3962 176.203 26.2731 176.203 25.085V24.5234C176.203 23.3516 176.073 22.2448 175.812 21.2031C175.568 20.1452 175.178 19.2093 174.641 18.3955C174.12 17.5817 173.452 16.9469 172.639 16.4912C171.841 16.0192 170.889 15.7832 169.782 15.7832C168.675 15.7832 167.715 16.0192 166.901 16.4912C166.104 16.9469 165.445 17.5817 164.924 18.3955C164.403 19.2093 164.021 20.1452 163.776 21.2031C163.532 22.2448 163.41 23.3516 163.41 24.5234ZM187.043 0.5H192.927V32.3604L192.365 38H187.043V0.5ZM210.163 24.5479V25.0605C210.163 27.0137 209.943 28.8122 209.504 30.4561C209.081 32.0837 208.43 33.4997 207.551 34.7041C206.688 35.9085 205.614 36.8444 204.328 37.5117C203.059 38.1628 201.586 38.4883 199.909 38.4883C198.265 38.4883 196.833 38.179 195.612 37.5605C194.392 36.9421 193.366 36.0632 192.536 34.9238C191.722 33.7845 191.063 32.4255 190.559 30.8467C190.054 29.2679 189.696 27.5264 189.484 25.6221V23.9863C189.696 22.0658 190.054 20.3242 190.559 18.7617C191.063 17.1829 191.722 15.8239 192.536 14.6846C193.366 13.529 194.383 12.6419 195.588 12.0234C196.809 11.4049 198.233 11.0957 199.86 11.0957C201.553 11.0957 203.042 11.4212 204.328 12.0723C205.63 12.7233 206.713 13.651 207.575 14.8555C208.438 16.0436 209.081 17.4596 209.504 19.1035C209.943 20.7474 210.163 22.5622 210.163 24.5479ZM204.279 25.0605V24.5479C204.279 23.3597 204.182 22.2448 203.986 21.2031C203.791 20.1452 203.465 19.2174 203.01 18.4199C202.57 17.6224 201.968 16.9958 201.203 16.54C200.454 16.068 199.519 15.832 198.396 15.832C197.354 15.832 196.459 16.0111 195.71 16.3691C194.961 16.7272 194.335 17.2155 193.83 17.834C193.326 18.4525 192.927 19.1686 192.634 19.9824C192.357 20.7962 192.17 21.6751 192.072 22.6191V27.0381C192.219 28.2588 192.528 29.3818 193 30.4072C193.488 31.4163 194.172 32.2301 195.051 32.8486C195.93 33.4508 197.061 33.752 198.444 33.752C199.535 33.752 200.454 33.5322 201.203 33.0928C201.952 32.6533 202.546 32.043 202.985 31.2617C203.441 30.4642 203.767 29.5365 203.962 28.4785C204.174 27.4206 204.279 26.2812 204.279 25.0605ZM229.963 30.8467C229.963 30.2607 229.816 29.7318 229.523 29.2598C229.23 28.7715 228.669 28.332 227.839 27.9414C227.025 27.5508 225.821 27.1927 224.226 26.8672C222.826 26.5579 221.54 26.1917 220.368 25.7686C219.213 25.3291 218.22 24.8001 217.39 24.1816C216.56 23.5632 215.917 22.8307 215.461 21.9844C215.005 21.138 214.777 20.1615 214.777 19.0547C214.777 17.9805 215.013 16.9632 215.485 16.0029C215.957 15.0426 216.633 14.1963 217.512 13.4639C218.391 12.7314 219.457 12.1536 220.71 11.7305C221.979 11.3073 223.396 11.0957 224.958 11.0957C227.172 11.0957 229.068 11.4701 230.646 12.2188C232.242 12.9512 233.462 13.9521 234.309 15.2217C235.155 16.4749 235.578 17.891 235.578 19.4697H229.694C229.694 18.7699 229.515 18.1188 229.157 17.5166C228.815 16.8981 228.295 16.4017 227.595 16.0273C226.895 15.6367 226.016 15.4414 224.958 15.4414C223.949 15.4414 223.111 15.6042 222.443 15.9297C221.792 16.2389 221.304 16.6458 220.979 17.1504C220.669 17.6549 220.515 18.2083 220.515 18.8105C220.515 19.25 220.596 19.6488 220.759 20.0068C220.938 20.3486 221.231 20.666 221.638 20.959C222.045 21.2357 222.598 21.4961 223.298 21.7402C224.014 21.9844 224.909 22.2204 225.983 22.4482C228.002 22.8714 229.735 23.4167 231.184 24.084C232.648 24.735 233.771 25.5814 234.553 26.623C235.334 27.6484 235.725 28.9505 235.725 30.5293C235.725 31.7012 235.472 32.7754 234.968 33.752C234.479 34.7122 233.763 35.5505 232.819 36.2666C231.875 36.9665 230.744 37.5117 229.426 37.9023C228.124 38.293 226.659 38.4883 225.031 38.4883C222.639 38.4883 220.612 38.0651 218.952 37.2188C217.292 36.3561 216.031 35.2575 215.168 33.9229C214.322 32.5719 213.898 31.1722 213.898 29.7236H219.587C219.652 30.8141 219.953 31.6849 220.49 32.3359C221.044 32.9707 221.727 33.4346 222.541 33.7275C223.371 34.0042 224.226 34.1426 225.104 34.1426C226.162 34.1426 227.049 34.0042 227.766 33.7275C228.482 33.4346 229.027 33.0439 229.401 32.5557C229.776 32.0511 229.963 31.4814 229.963 30.8467Z" fill="#4540DB"/>
</svg>
