<svg width="157" height="20" viewBox="0 0 157 20" fill="none" xmlns="http://www.w3.org/2000/svg">
<path d="M8.63037 1.22656V19H6.31104V1.22656H8.63037ZM14.3433 1.22656V3.15527H0.610352V1.22656H14.3433ZM20.8984 19.2441C19.9788 19.2441 19.1447 19.0895 18.396 18.7803C17.6554 18.4629 17.0166 18.0194 16.4795 17.4497C15.9505 16.88 15.5436 16.2046 15.2588 15.4233C14.974 14.6421 14.8315 13.7876 14.8315 12.8599V12.3472C14.8315 11.2729 14.9902 10.3167 15.3076 9.47852C15.625 8.63216 16.0563 7.91602 16.6016 7.33008C17.1468 6.74414 17.7653 6.30062 18.457 5.99951C19.1488 5.6984 19.8649 5.54785 20.6055 5.54785C21.5495 5.54785 22.3633 5.71061 23.0469 6.03613C23.7386 6.36165 24.3042 6.81738 24.7437 7.40332C25.1831 7.98112 25.5086 8.66471 25.7202 9.4541C25.9318 10.2354 26.0376 11.0898 26.0376 12.0176V13.0308H16.1743V11.1875H23.7793V11.0166C23.7467 10.4307 23.6247 9.861 23.4131 9.30762C23.2096 8.75423 22.8841 8.2985 22.4365 7.94043C21.9889 7.58236 21.3786 7.40332 20.6055 7.40332C20.0928 7.40332 19.6208 7.51318 19.1895 7.73291C18.7581 7.9445 18.3879 8.26188 18.0786 8.68506C17.7694 9.10824 17.5293 9.625 17.3584 10.2354C17.1875 10.8457 17.1021 11.5496 17.1021 12.3472V12.8599C17.1021 13.4865 17.1875 14.0765 17.3584 14.6299C17.5374 15.1751 17.7938 15.6553 18.1274 16.0703C18.4692 16.4854 18.8802 16.8109 19.3604 17.0469C19.8486 17.2829 20.402 17.4009 21.0205 17.4009C21.818 17.4009 22.4935 17.2381 23.0469 16.9126C23.6003 16.5871 24.0845 16.1517 24.4995 15.6064L25.8667 16.6929C25.5819 17.1242 25.2197 17.5352 24.7803 17.9258C24.3408 18.3164 23.7996 18.6338 23.1567 18.8779C22.522 19.1221 21.7692 19.2441 20.8984 19.2441ZM33.96 17.3887C34.4971 17.3887 34.9935 17.2788 35.4492 17.0591C35.9049 16.8394 36.2793 16.5382 36.5723 16.1558C36.8652 15.7651 37.0321 15.3216 37.0728 14.8252H39.2212C39.1805 15.6064 38.916 16.3348 38.4277 17.0103C37.9476 17.6776 37.3169 18.2188 36.5356 18.6338C35.7544 19.0407 34.8958 19.2441 33.96 19.2441C32.9671 19.2441 32.1004 19.0692 31.3599 18.7192C30.6274 18.3693 30.0171 17.8892 29.5288 17.2788C29.0487 16.6685 28.6865 15.9686 28.4424 15.1792C28.2064 14.3817 28.0884 13.5394 28.0884 12.6523V12.1396C28.0884 11.2526 28.2064 10.4144 28.4424 9.625C28.6865 8.82747 29.0487 8.12354 29.5288 7.51318C30.0171 6.90283 30.6274 6.42269 31.3599 6.07275C32.1004 5.72282 32.9671 5.54785 33.96 5.54785C34.9935 5.54785 35.8968 5.75944 36.6699 6.18262C37.443 6.59766 38.0493 7.16732 38.4888 7.8916C38.9364 8.60775 39.1805 9.42155 39.2212 10.333H37.0728C37.0321 9.78776 36.8774 9.29541 36.6089 8.85596C36.3485 8.4165 35.9904 8.06657 35.5347 7.80615C35.0871 7.5376 34.5622 7.40332 33.96 7.40332C33.2682 7.40332 32.6864 7.54167 32.2144 7.81836C31.7505 8.08691 31.3802 8.45312 31.1035 8.91699C30.835 9.37272 30.6396 9.88135 30.5176 10.4429C30.4036 10.9963 30.3467 11.5618 30.3467 12.1396V12.6523C30.3467 13.2301 30.4036 13.7998 30.5176 14.3613C30.6315 14.9229 30.8228 15.4315 31.0913 15.8872C31.368 16.3429 31.7383 16.7091 32.2021 16.9858C32.6742 17.2544 33.2601 17.3887 33.96 17.3887ZM44.0186 0.25V19H41.7603V0.25H44.0186ZM43.4814 11.8955L42.5415 11.8589C42.5496 10.9556 42.6839 10.1214 42.9443 9.35645C43.2048 8.58333 43.571 7.91195 44.043 7.34229C44.515 6.77262 45.0765 6.33317 45.7275 6.02393C46.3867 5.70654 47.1151 5.54785 47.9126 5.54785C48.5636 5.54785 49.1496 5.63737 49.6704 5.81641C50.1912 5.9873 50.6348 6.264 51.001 6.64648C51.3753 7.02897 51.6602 7.52539 51.8555 8.13574C52.0508 8.73796 52.1484 9.47445 52.1484 10.3452V19H49.8779V10.3208C49.8779 9.62907 49.7762 9.07568 49.5728 8.66064C49.3693 8.23747 49.0723 7.93229 48.6816 7.74512C48.291 7.5498 47.8109 7.45215 47.2412 7.45215C46.6797 7.45215 46.167 7.57015 45.7031 7.80615C45.2474 8.04215 44.8527 8.36768 44.519 8.78271C44.1935 9.19775 43.9372 9.67383 43.75 10.2109C43.571 10.7399 43.4814 11.3014 43.4814 11.8955Z" fill="#4540DB"/>
<path d="M65.3442 14.5078C65.3442 14.0928 65.2791 13.7266 65.1489 13.4092C65.0269 13.0837 64.8071 12.7907 64.4897 12.5303C64.1805 12.2699 63.7492 12.0216 63.1958 11.7856C62.6506 11.5496 61.9588 11.3096 61.1206 11.0654C60.2417 10.805 59.4482 10.5161 58.7402 10.1987C58.0322 9.87321 57.4259 9.50293 56.9214 9.08789C56.4168 8.67285 56.0303 8.19678 55.7617 7.65967C55.4932 7.12256 55.3589 6.50814 55.3589 5.81641C55.3589 5.12467 55.5013 4.48584 55.7861 3.8999C56.071 3.31396 56.4779 2.80534 57.0068 2.37402C57.5439 1.93457 58.1828 1.59277 58.9233 1.34863C59.6639 1.10449 60.4899 0.982422 61.4014 0.982422C62.736 0.982422 63.8672 1.23877 64.7949 1.75146C65.7308 2.25602 66.4429 2.91927 66.9312 3.74121C67.4194 4.55501 67.6636 5.42578 67.6636 6.35352H65.3198C65.3198 5.6862 65.1774 5.09619 64.8926 4.5835C64.6077 4.06266 64.1764 3.65576 63.5986 3.36279C63.0208 3.06169 62.2884 2.91113 61.4014 2.91113C60.5632 2.91113 59.8714 3.03727 59.3262 3.28955C58.7809 3.54183 58.374 3.88363 58.1055 4.31494C57.8451 4.74626 57.7148 5.23861 57.7148 5.79199C57.7148 6.16634 57.7922 6.50814 57.9468 6.81738C58.1095 7.11849 58.3577 7.39925 58.6914 7.65967C59.0332 7.92008 59.4645 8.16016 59.9854 8.37988C60.5143 8.59961 61.145 8.8112 61.8774 9.01465C62.8866 9.29948 63.7573 9.61686 64.4897 9.9668C65.2222 10.3167 65.8244 10.7114 66.2964 11.1509C66.7765 11.5822 67.1305 12.0745 67.3584 12.6279C67.5944 13.1732 67.7124 13.7917 67.7124 14.4834C67.7124 15.2077 67.5659 15.8628 67.2729 16.4487C66.98 17.0347 66.5609 17.5352 66.0156 17.9502C65.4704 18.3652 64.8153 18.6867 64.0503 18.9146C63.2935 19.1343 62.4471 19.2441 61.5112 19.2441C60.6893 19.2441 59.8796 19.1302 59.082 18.9023C58.2926 18.6745 57.5724 18.3327 56.9214 17.877C56.2785 17.4212 55.7617 16.8597 55.3711 16.1924C54.9886 15.5169 54.7974 14.7357 54.7974 13.8486H57.1411C57.1411 14.459 57.2591 14.9839 57.4951 15.4233C57.7311 15.8547 58.0526 16.2127 58.4595 16.4976C58.8745 16.7824 59.3424 16.994 59.8633 17.1323C60.3923 17.2625 60.9416 17.3276 61.5112 17.3276C62.3332 17.3276 63.029 17.2137 63.5986 16.9858C64.1683 16.758 64.5996 16.4325 64.8926 16.0093C65.1937 15.5861 65.3442 15.0856 65.3442 14.5078ZM69.7754 12.5425V12.2617C69.7754 11.3096 69.9137 10.4266 70.1904 9.61279C70.4671 8.79085 70.8659 8.07878 71.3867 7.47656C71.9076 6.86621 72.5382 6.39421 73.2788 6.06055C74.0194 5.71875 74.8494 5.54785 75.769 5.54785C76.6968 5.54785 77.5309 5.71875 78.2715 6.06055C79.0202 6.39421 79.6549 6.86621 80.1758 7.47656C80.7048 8.07878 81.1076 8.79085 81.3843 9.61279C81.661 10.4266 81.7993 11.3096 81.7993 12.2617V12.5425C81.7993 13.4946 81.661 14.3776 81.3843 15.1914C81.1076 16.0052 80.7048 16.7173 80.1758 17.3276C79.6549 17.9299 79.0243 18.4019 78.2837 18.7437C77.5513 19.0773 76.7212 19.2441 75.7935 19.2441C74.8657 19.2441 74.0316 19.0773 73.291 18.7437C72.5505 18.4019 71.9157 17.9299 71.3867 17.3276C70.8659 16.7173 70.4671 16.0052 70.1904 15.1914C69.9137 14.3776 69.7754 13.4946 69.7754 12.5425ZM72.0337 12.2617V12.5425C72.0337 13.2017 72.111 13.8242 72.2656 14.4102C72.4202 14.988 72.6522 15.5007 72.9614 15.9482C73.2788 16.3958 73.6735 16.7498 74.1455 17.0103C74.6175 17.2625 75.1668 17.3887 75.7935 17.3887C76.4119 17.3887 76.9531 17.2625 77.417 17.0103C77.889 16.7498 78.2796 16.3958 78.5889 15.9482C78.8981 15.5007 79.13 14.988 79.2847 14.4102C79.4474 13.8242 79.5288 13.2017 79.5288 12.5425V12.2617C79.5288 11.6107 79.4474 10.9963 79.2847 10.4185C79.13 9.83252 78.894 9.31576 78.5767 8.86816C78.2674 8.41243 77.8768 8.05436 77.4048 7.79395C76.9409 7.53353 76.3957 7.40332 75.769 7.40332C75.1506 7.40332 74.6053 7.53353 74.1333 7.79395C73.6694 8.05436 73.2788 8.41243 72.9614 8.86816C72.6522 9.31576 72.4202 9.83252 72.2656 10.4185C72.111 10.9963 72.0337 11.6107 72.0337 12.2617ZM87.085 0.25V19H84.8145V0.25H87.085ZM98.7915 15.9482V5.79199H101.062V19H98.9014L98.7915 15.9482ZM99.2188 13.165L100.159 13.1406C100.159 14.0195 100.065 14.8333 99.8779 15.582C99.6989 16.3226 99.4059 16.9655 98.999 17.5107C98.5921 18.056 98.0591 18.4832 97.3999 18.7925C96.7407 19.0936 95.9391 19.2441 94.9951 19.2441C94.3522 19.2441 93.7622 19.1506 93.2251 18.9634C92.6961 18.7762 92.2404 18.4873 91.8579 18.0967C91.4754 17.7061 91.1784 17.1974 90.9668 16.5708C90.7633 15.9442 90.6616 15.1914 90.6616 14.3125V5.79199H92.9199V14.3369C92.9199 14.931 92.985 15.4233 93.1152 15.814C93.2536 16.1965 93.4367 16.5016 93.6646 16.7295C93.9006 16.9492 94.161 17.1038 94.4458 17.1934C94.7388 17.2829 95.0399 17.3276 95.3491 17.3276C96.3094 17.3276 97.0703 17.1445 97.6318 16.7783C98.1934 16.404 98.5962 15.9035 98.8403 15.2769C99.0926 14.6421 99.2188 13.9382 99.2188 13.165ZM110.034 5.79199V7.52539H102.893V5.79199H110.034ZM105.31 2.58154H107.568V15.7285C107.568 16.1761 107.638 16.5138 107.776 16.7417C107.914 16.9696 108.093 17.1201 108.313 17.1934C108.533 17.2666 108.769 17.3032 109.021 17.3032C109.208 17.3032 109.403 17.2869 109.607 17.2544C109.819 17.2137 109.977 17.1812 110.083 17.1567L110.095 19C109.916 19.057 109.68 19.1099 109.387 19.1587C109.102 19.2157 108.757 19.2441 108.35 19.2441C107.796 19.2441 107.288 19.1343 106.824 18.9146C106.36 18.6948 105.99 18.3286 105.713 17.8159C105.444 17.2951 105.31 16.5952 105.31 15.7163V2.58154ZM115.137 5.79199V19H112.866V5.79199H115.137ZM112.695 2.28857C112.695 1.92236 112.805 1.61312 113.025 1.36084C113.253 1.10856 113.586 0.982422 114.026 0.982422C114.457 0.982422 114.787 1.10856 115.015 1.36084C115.251 1.61312 115.369 1.92236 115.369 2.28857C115.369 2.63851 115.251 2.93962 115.015 3.19189C114.787 3.43604 114.457 3.55811 114.026 3.55811C113.586 3.55811 113.253 3.43604 113.025 3.19189C112.805 2.93962 112.695 2.63851 112.695 2.28857ZM118.164 12.5425V12.2617C118.164 11.3096 118.302 10.4266 118.579 9.61279C118.856 8.79085 119.255 8.07878 119.775 7.47656C120.296 6.86621 120.927 6.39421 121.667 6.06055C122.408 5.71875 123.238 5.54785 124.158 5.54785C125.085 5.54785 125.92 5.71875 126.66 6.06055C127.409 6.39421 128.044 6.86621 128.564 7.47656C129.093 8.07878 129.496 8.79085 129.773 9.61279C130.05 10.4266 130.188 11.3096 130.188 12.2617V12.5425C130.188 13.4946 130.05 14.3776 129.773 15.1914C129.496 16.0052 129.093 16.7173 128.564 17.3276C128.044 17.9299 127.413 18.4019 126.672 18.7437C125.94 19.0773 125.11 19.2441 124.182 19.2441C123.254 19.2441 122.42 19.0773 121.68 18.7437C120.939 18.4019 120.304 17.9299 119.775 17.3276C119.255 16.7173 118.856 16.0052 118.579 15.1914C118.302 14.3776 118.164 13.4946 118.164 12.5425ZM120.422 12.2617V12.5425C120.422 13.2017 120.5 13.8242 120.654 14.4102C120.809 14.988 121.041 15.5007 121.35 15.9482C121.667 16.3958 122.062 16.7498 122.534 17.0103C123.006 17.2625 123.556 17.3887 124.182 17.3887C124.801 17.3887 125.342 17.2625 125.806 17.0103C126.278 16.7498 126.668 16.3958 126.978 15.9482C127.287 15.5007 127.519 14.988 127.673 14.4102C127.836 13.8242 127.917 13.2017 127.917 12.5425V12.2617C127.917 11.6107 127.836 10.9963 127.673 10.4185C127.519 9.83252 127.283 9.31576 126.965 8.86816C126.656 8.41243 126.265 8.05436 125.793 7.79395C125.33 7.53353 124.784 7.40332 124.158 7.40332C123.539 7.40332 122.994 7.53353 122.522 7.79395C122.058 8.05436 121.667 8.41243 121.35 8.86816C121.041 9.31576 120.809 9.83252 120.654 10.4185C120.5 10.9963 120.422 11.6107 120.422 12.2617ZM135.278 8.61182V19H133.02V5.79199H135.156L135.278 8.61182ZM134.741 11.8955L133.801 11.8589C133.809 10.9556 133.944 10.1214 134.204 9.35645C134.465 8.58333 134.831 7.91195 135.303 7.34229C135.775 6.77262 136.336 6.33317 136.987 6.02393C137.646 5.70654 138.375 5.54785 139.172 5.54785C139.823 5.54785 140.409 5.63737 140.93 5.81641C141.451 5.9873 141.895 6.264 142.261 6.64648C142.635 7.02897 142.92 7.52539 143.115 8.13574C143.311 8.73796 143.408 9.47445 143.408 10.3452V19H141.138V10.3208C141.138 9.62907 141.036 9.07568 140.833 8.66064C140.629 8.23747 140.332 7.93229 139.941 7.74512C139.551 7.5498 139.071 7.45215 138.501 7.45215C137.939 7.45215 137.427 7.57015 136.963 7.80615C136.507 8.04215 136.112 8.36768 135.779 8.78271C135.453 9.19775 135.197 9.67383 135.01 10.2109C134.831 10.7399 134.741 11.3014 134.741 11.8955ZM154.529 15.4966C154.529 15.1711 154.456 14.87 154.309 14.5933C154.171 14.3084 153.882 14.0521 153.442 13.8242C153.011 13.5882 152.36 13.3848 151.489 13.2139C150.757 13.0592 150.094 12.8761 149.5 12.6646C148.914 12.453 148.413 12.1966 147.998 11.8955C147.591 11.5944 147.278 11.2404 147.058 10.8335C146.838 10.4266 146.729 9.95052 146.729 9.40527C146.729 8.88444 146.842 8.39209 147.07 7.92822C147.306 7.46436 147.636 7.05339 148.059 6.69531C148.49 6.33724 149.007 6.05648 149.609 5.85303C150.212 5.64958 150.883 5.54785 151.624 5.54785C152.681 5.54785 153.585 5.73503 154.333 6.10938C155.082 6.48372 155.656 6.98421 156.055 7.61084C156.453 8.22933 156.653 8.91699 156.653 9.67383H154.395C154.395 9.30762 154.285 8.95361 154.065 8.61182C153.853 8.26188 153.54 7.97298 153.125 7.74512C152.718 7.51725 152.218 7.40332 151.624 7.40332C150.997 7.40332 150.488 7.50098 150.098 7.69629C149.715 7.88346 149.434 8.12354 149.255 8.4165C149.084 8.70947 148.999 9.01872 148.999 9.34424C148.999 9.58838 149.04 9.80811 149.121 10.0034C149.211 10.1906 149.365 10.3656 149.585 10.5283C149.805 10.6829 150.114 10.8294 150.513 10.9678C150.911 11.1061 151.42 11.2445 152.039 11.3828C153.121 11.627 154.012 11.9199 154.712 12.2617C155.412 12.6035 155.933 13.0226 156.274 13.519C156.616 14.0155 156.787 14.6177 156.787 15.3257C156.787 15.9035 156.665 16.4325 156.421 16.9126C156.185 17.3927 155.839 17.8078 155.383 18.1577C154.936 18.4995 154.399 18.7681 153.772 18.9634C153.153 19.1506 152.458 19.2441 151.685 19.2441C150.521 19.2441 149.536 19.0366 148.73 18.6216C147.925 18.2065 147.314 17.6694 146.899 17.0103C146.484 16.3511 146.277 15.6553 146.277 14.9229H148.547C148.58 15.5413 148.759 16.0337 149.084 16.3999C149.41 16.758 149.809 17.0143 150.281 17.1689C150.753 17.3154 151.221 17.3887 151.685 17.3887C152.303 17.3887 152.82 17.3073 153.235 17.1445C153.658 16.9818 153.979 16.758 154.199 16.4731C154.419 16.1883 154.529 15.8628 154.529 15.4966Z" fill="black"/>
</svg>
